<svg xmlns="http://www.w3.org/2000/svg" xmlns:xlink="http://www.w3.org/1999/xlink" width="300" zoomAndPan="magnify" viewBox="0 0 224.87999 149.999998" height="200" preserveAspectRatio="xMidYMid meet" version="1.0"><defs><clipPath id="ede976cca1"><path d="M 38.40625 14.449219 L 186.464844 14.449219 L 186.464844 147.105469 L 38.40625 147.105469 Z M 38.40625 14.449219 " clip-rule="nonzero"/></clipPath><clipPath id="303d1b2514"><path d="M 60.667969 51.777344 L 61.558594 51.777344 L 61.558594 52.664062 L 60.667969 52.664062 Z M 60.667969 51.777344 " clip-rule="nonzero"/></clipPath><clipPath id="5764a7e78b"><path d="M 60.863281 52.421875 L 61.140625 51.976562 L 60.863281 52.398438 Z M 60.863281 52.421875 " clip-rule="nonzero"/></clipPath><clipPath id="3203984107"><path d="M 61.117188 52.507812 L 60.742188 52.375 L 60.890625 51.890625 L 61.265625 52.015625 Z M 61.117188 52.507812 " clip-rule="nonzero"/></clipPath><linearGradient x1="0.50562" gradientTransform="matrix(6.545362, -21.251494, -21.040994, -7.249503, 57.615524, 63.186511)" y1="0" x2="0.528596" gradientUnits="userSpaceOnUse" y2="0" id="aac99fe064"><stop stop-opacity="1" stop-color="rgb(65.499878%, 18.798828%, 12.5%)" offset="0"/><stop stop-opacity="1" stop-color="rgb(65.499878%, 18.798828%, 12.5%)" offset="0.5"/><stop stop-opacity="1" stop-color="rgb(65.499878%, 18.605042%, 12.5%)" offset="1"/></linearGradient><clipPath id="adef24cb63"><path d="M 70 3.1875 L 140 3.1875 L 140 121 L 70 121 Z M 70 3.1875 " clip-rule="nonzero"/></clipPath><clipPath id="fd3f4309d7"><path d="M 111.9375 10.652344 L 137.007812 10.652344 L 137.007812 60.839844 L 111.9375 60.839844 Z M 111.9375 10.652344 " clip-rule="nonzero"/></clipPath><clipPath id="e16f6210e8"><path d="M 137.007812 51.71875 L 137.007812 51.644531 C 137.007812 51.613281 136.996094 51.582031 136.984375 51.550781 L 136.984375 46.042969 L 137.007812 10.695312 C 136.949219 10.929688 136.71875 11.152344 136.320312 11.359375 L 125.851562 17.40625 C 124.949219 17.921875 124.042969 17.929688 123.140625 17.425781 L 117.71875 14.292969 L 117.695312 14.292969 L 116.761719 13.738281 L 116.78125 13.714844 L 112.605469 11.335938 C 112.164062 11.074219 111.941406 10.84375 111.9375 10.652344 L 111.9375 41.957031 L 114.40625 43.375 L 114.382812 43.375 L 117.425781 45.152344 C 117.84375 45.390625 118.074219 45.621094 118.117188 45.84375 C 118.117188 45.855469 118.117188 45.878906 118.117188 45.910156 C 118.132812 45.9375 118.140625 45.976562 118.140625 46.019531 L 118.140625 46.042969 L 118.117188 46.066406 L 118.117188 57.40625 L 123.164062 60.285156 C 124.066406 60.832031 124.96875 60.839844 125.871094 60.308594 L 136.339844 54.285156 C 136.753906 54.046875 136.976562 53.808594 137.007812 53.574219 L 137.007812 53.464844 C 137.003906 53.4375 136.996094 53.40625 136.984375 53.375 L 137.007812 52.175781 L 137.007812 51.773438 L 136.984375 51.796875 C 136.996094 51.769531 137.003906 51.742188 137.007812 51.71875 " clip-rule="nonzero"/></clipPath><linearGradient x1="0.00440069" gradientTransform="matrix(25.336886, 0, 0, -25.328492, 111.827117, 35.675772)" y1="0" x2="0.993847" gradientUnits="userSpaceOnUse" y2="0" id="e01e9f4249"><stop stop-opacity="1" stop-color="rgb(38.398743%, 55.299377%, 81.599426%)" offset="0"/><stop stop-opacity="1" stop-color="rgb(38.398743%, 55.299377%, 81.599426%)" offset="0.25"/><stop stop-opacity="1" stop-color="rgb(38.398743%, 55.299377%, 81.599426%)" offset="0.3125"/><stop stop-opacity="1" stop-color="rgb(38.398743%, 55.299377%, 81.599426%)" offset="0.34375"/><stop stop-opacity="1" stop-color="rgb(38.787842%, 55.487061%, 81.799316%)" offset="0.347656"/><stop stop-opacity="1" stop-color="rgb(39.176941%, 55.67627%, 81.999207%)" offset="0.351563"/><stop stop-opacity="1" stop-color="rgb(39.416504%, 56.115723%, 82.199097%)" offset="0.355469"/><stop stop-opacity="1" stop-color="rgb(39.657593%, 56.556702%, 82.398987%)" offset="0.359375"/><stop stop-opacity="1" stop-color="rgb(39.846802%, 56.747437%, 82.548523%)" offset="0.367188"/><stop stop-opacity="1" stop-color="rgb(40.428162%, 57.278442%, 82.899475%)" offset="0.371094"/><stop stop-opacity="1" stop-color="rgb(40.818787%, 57.618713%, 83.099365%)" offset="0.375"/><stop stop-opacity="1" stop-color="rgb(41.209412%, 57.809448%, 83.099365%)" offset="0.378906"/><stop stop-opacity="1" stop-color="rgb(41.600037%, 58.000183%, 83.099365%)" offset="0.382812"/><stop stop-opacity="1" stop-color="rgb(42.132568%, 58.389282%, 83.299255%)" offset="0.386719"/><stop stop-opacity="1" stop-color="rgb(42.666626%, 58.779907%, 83.499146%)" offset="0.390625"/><stop stop-opacity="1" stop-color="rgb(43.083191%, 59.220886%, 83.729553%)" offset="0.394531"/><stop stop-opacity="1" stop-color="rgb(43.499756%, 59.661865%, 83.961487%)" offset="0.398438"/><stop stop-opacity="1" stop-color="rgb(43.721008%, 60.050964%, 84.150696%)" offset="0.402344"/><stop stop-opacity="1" stop-color="rgb(43.942261%, 60.441589%, 84.341431%)" offset="0.40625"/><stop stop-opacity="1" stop-color="rgb(44.13147%, 60.643005%, 84.532166%)" offset="0.410156"/><stop stop-opacity="1" stop-color="rgb(44.322205%, 60.845947%, 84.7229%)" offset="0.414063"/><stop stop-opacity="1" stop-color="rgb(44.71283%, 61.424255%, 84.912109%)" offset="0.417969"/><stop stop-opacity="1" stop-color="rgb(45.103455%, 62.004089%, 85.102844%)" offset="0.421875"/><stop stop-opacity="1" stop-color="rgb(45.49408%, 62.200928%, 85.301208%)" offset="0.425781"/><stop stop-opacity="1" stop-color="rgb(45.884705%, 62.399292%, 85.499573%)" offset="0.429688"/><stop stop-opacity="1" stop-color="rgb(46.27533%, 62.731934%, 85.682678%)" offset="0.433594"/><stop stop-opacity="1" stop-color="rgb(46.665955%, 63.064575%, 85.865784%)" offset="0.4375"/><stop stop-opacity="1" stop-color="rgb(46.905518%, 63.505554%, 86.082458%)" offset="0.441406"/><stop stop-opacity="1" stop-color="rgb(47.146606%, 63.946533%, 86.299133%)" offset="0.445312"/><stop stop-opacity="1" stop-color="rgb(47.50061%, 64.537048%, 86.512756%)" offset="0.449219"/><stop stop-opacity="1" stop-color="rgb(47.854614%, 65.127563%, 86.726379%)" offset="0.453125"/><stop stop-opacity="1" stop-color="rgb(48.431396%, 65.516663%, 86.917114%)" offset="0.457031"/><stop stop-opacity="1" stop-color="rgb(49.008179%, 65.907288%, 87.107849%)" offset="0.460937"/><stop stop-opacity="1" stop-color="rgb(49.397278%, 66.297913%, 87.303162%)" offset="0.464844"/><stop stop-opacity="1" stop-color="rgb(49.787903%, 66.688538%, 87.5%)" offset="0.46875"/><stop stop-opacity="1" stop-color="rgb(50.363159%, 67.079163%, 87.637329%)" offset="0.472656"/><stop stop-opacity="1" stop-color="rgb(50.939941%, 67.469788%, 87.776184%)" offset="0.476563"/><stop stop-opacity="1" stop-color="rgb(51.394653%, 67.658997%, 87.986755%)" offset="0.480469"/><stop stop-opacity="1" stop-color="rgb(51.849365%, 67.849731%, 88.198853%)" offset="0.484375"/><stop stop-opacity="1" stop-color="rgb(52.052307%, 68.240356%, 88.214111%)" offset="0.488281"/><stop stop-opacity="1" stop-color="rgb(52.255249%, 68.630981%, 88.230896%)" offset="0.492188"/><stop stop-opacity="1" stop-color="rgb(52.783203%, 69.021606%, 88.421631%)" offset="0.496094"/><stop stop-opacity="1" stop-color="rgb(53.311157%, 69.412231%, 88.612366%)" offset="0.5"/><stop stop-opacity="1" stop-color="rgb(53.701782%, 69.801331%, 88.806152%)" offset="0.503906"/><stop stop-opacity="1" stop-color="rgb(54.092407%, 70.191956%, 88.999939%)" offset="0.507812"/><stop stop-opacity="1" stop-color="rgb(54.483032%, 70.38269%, 89.186096%)" offset="0.511719"/><stop stop-opacity="1" stop-color="rgb(54.873657%, 70.573425%, 89.373779%)" offset="0.515625"/><stop stop-opacity="1" stop-color="rgb(55.31311%, 71.012878%, 89.413452%)" offset="0.519531"/><stop stop-opacity="1" stop-color="rgb(55.754089%, 71.453857%, 89.454651%)" offset="0.523438"/><stop stop-opacity="1" stop-color="rgb(56.144714%, 71.644592%, 89.627075%)" offset="0.527344"/><stop stop-opacity="1" stop-color="rgb(56.535339%, 71.835327%, 89.7995%)" offset="0.53125"/><stop stop-opacity="1" stop-color="rgb(56.922913%, 72.175598%, 89.99939%)" offset="0.535156"/><stop stop-opacity="1" stop-color="rgb(57.312012%, 72.515869%, 90.19928%)" offset="0.539062"/><stop stop-opacity="1" stop-color="rgb(57.653809%, 72.906494%, 90.19928%)" offset="0.542969"/><stop stop-opacity="1" stop-color="rgb(57.997131%, 73.297119%, 90.19928%)" offset="0.546875"/><stop stop-opacity="1" stop-color="rgb(58.38623%, 73.486328%, 90.39917%)" offset="0.550781"/><stop stop-opacity="1" stop-color="rgb(58.776855%, 73.677063%, 90.59906%)" offset="0.554687"/><stop stop-opacity="1" stop-color="rgb(59.16748%, 74.067688%, 90.777588%)" offset="0.558594"/><stop stop-opacity="1" stop-color="rgb(59.558105%, 74.458313%, 90.957642%)" offset="0.5625"/><stop stop-opacity="1" stop-color="rgb(59.997559%, 74.697876%, 90.997314%)" offset="0.566406"/><stop stop-opacity="1" stop-color="rgb(60.438538%, 74.938965%, 91.038513%)" offset="0.570312"/><stop stop-opacity="1" stop-color="rgb(60.818481%, 75.318909%, 91.218567%)" offset="0.574219"/><stop stop-opacity="1" stop-color="rgb(61.199951%, 75.698853%, 91.398621%)" offset="0.578125"/><stop stop-opacity="1" stop-color="rgb(61.199951%, 75.698853%, 91.398621%)" offset="0.59375"/><stop stop-opacity="1" stop-color="rgb(61.199951%, 75.698853%, 91.398621%)" offset="0.625"/><stop stop-opacity="1" stop-color="rgb(61.199951%, 75.698853%, 91.398621%)" offset="0.75"/><stop stop-opacity="1" stop-color="rgb(61.199951%, 75.698853%, 91.398621%)" offset="1"/></linearGradient><clipPath id="1e0d8ae2e0"><path d="M 118.117188 46.242188 L 137.089844 46.242188 L 137.089844 96.390625 L 118.117188 96.390625 Z M 118.117188 46.242188 " clip-rule="nonzero"/></clipPath><clipPath id="eb8d6f8a49"><path d="M 136.984375 46.308594 L 136.984375 51.550781 C 136.996094 51.582031 137.007812 51.613281 137.007812 51.644531 L 137.007812 46.242188 C 137.003906 46.261719 136.996094 46.285156 136.984375 46.308594 Z M 137.007812 51.71875 C 137.003906 51.742188 136.996094 51.769531 136.984375 51.796875 L 137.007812 51.773438 Z M 137.007812 52.175781 L 136.984375 53.375 C 136.996094 53.40625 137.003906 53.4375 137.007812 53.464844 Z M 118.117188 57.40625 L 118.117188 70.726562 C 118.117188 70.742188 118.117188 70.765625 118.117188 70.792969 C 118.132812 70.824219 118.140625 70.859375 118.140625 70.90625 L 118.140625 70.925781 L 118.117188 70.949219 L 118.117188 73.992188 C 118.144531 74.066406 118.144531 74.148438 118.117188 74.238281 L 118.140625 74.214844 L 118.117188 76.101562 L 118.117188 92.957031 L 123.164062 95.832031 C 124.066406 96.382812 124.96875 96.390625 125.871094 95.855469 L 136.339844 89.835938 C 136.875 89.523438 137.089844 89.21875 136.984375 88.921875 L 137.007812 87.324219 L 136.984375 87.347656 C 137.015625 87.257812 137.015625 87.175781 136.984375 87.101562 L 136.984375 85.125 L 137.007812 53.574219 C 136.976562 53.808594 136.753906 54.046875 136.339844 54.285156 L 125.871094 60.308594 C 124.96875 60.839844 124.066406 60.832031 123.164062 60.285156 L 118.117188 57.40625 " clip-rule="nonzero"/></clipPath><linearGradient x1="0.248251" gradientTransform="matrix(25.336886, 0, 0, -25.328492, 111.826667, 71.246312)" y1="0" x2="0.997085" gradientUnits="userSpaceOnUse" y2="0" id="afbb2a47c6"><stop stop-opacity="1" stop-color="rgb(38.398743%, 55.299377%, 81.599426%)" offset="0"/><stop stop-opacity="1" stop-color="rgb(38.406372%, 55.299377%, 81.599426%)" offset="0.125"/><stop stop-opacity="1" stop-color="rgb(38.612366%, 55.305481%, 81.60553%)" offset="0.128906"/><stop stop-opacity="1" stop-color="rgb(38.81073%, 55.311584%, 81.611633%)" offset="0.132813"/><stop stop-opacity="1" stop-color="rgb(39.004517%, 55.505371%, 81.80542%)" offset="0.140625"/><stop stop-opacity="1" stop-color="rgb(39.399719%, 56.098938%, 82.199097%)" offset="0.144531"/><stop stop-opacity="1" stop-color="rgb(39.599609%, 56.498718%, 82.398987%)" offset="0.148438"/><stop stop-opacity="1" stop-color="rgb(39.826965%, 56.726074%, 82.548523%)" offset="0.152344"/><stop stop-opacity="1" stop-color="rgb(40.054321%, 56.954956%, 82.699585%)" offset="0.15625"/><stop stop-opacity="1" stop-color="rgb(40.245056%, 57.139587%, 82.71637%)" offset="0.164062"/><stop stop-opacity="1" stop-color="rgb(40.817261%, 57.470703%, 82.91626%)" offset="0.167969"/><stop stop-opacity="1" stop-color="rgb(41.19873%, 57.615662%, 83.099365%)" offset="0.171875"/><stop stop-opacity="1" stop-color="rgb(41.397095%, 57.806396%, 83.099365%)" offset="0.175781"/><stop stop-opacity="1" stop-color="rgb(41.596985%, 57.998657%, 83.099365%)" offset="0.179688"/><stop stop-opacity="1" stop-color="rgb(41.98761%, 58.387756%, 83.299255%)" offset="0.183594"/><stop stop-opacity="1" stop-color="rgb(42.378235%, 58.778381%, 83.499146%)" offset="0.1875"/><stop stop-opacity="1" stop-color="rgb(42.738342%, 59.017944%, 83.699036%)" offset="0.191406"/><stop stop-opacity="1" stop-color="rgb(43.099976%, 59.259033%, 83.898926%)" offset="0.195313"/><stop stop-opacity="1" stop-color="rgb(43.319702%, 59.449768%, 83.918762%)" offset="0.199219"/><stop stop-opacity="1" stop-color="rgb(43.540955%, 59.640503%, 83.940125%)" offset="0.203125"/><stop stop-opacity="1" stop-color="rgb(43.731689%, 60.018921%, 84.118652%)" offset="0.207031"/><stop stop-opacity="1" stop-color="rgb(43.922424%, 60.398865%, 84.298706%)" offset="0.210938"/><stop stop-opacity="1" stop-color="rgb(44.111633%, 60.600281%, 84.498596%)" offset="0.214844"/><stop stop-opacity="1" stop-color="rgb(44.302368%, 60.803223%, 84.698486%)" offset="0.21875"/><stop stop-opacity="1" stop-color="rgb(44.500732%, 61.001587%, 84.698486%)" offset="0.222656"/><stop stop-opacity="1" stop-color="rgb(44.699097%, 61.199951%, 84.698486%)" offset="0.226563"/><stop stop-opacity="1" stop-color="rgb(44.93103%, 61.631775%, 85.098267%)" offset="0.230469"/><stop stop-opacity="1" stop-color="rgb(45.16449%, 62.065125%, 85.499573%)" offset="0.234375"/><stop stop-opacity="1" stop-color="rgb(45.532227%, 62.249756%, 85.499573%)" offset="0.238281"/><stop stop-opacity="1" stop-color="rgb(45.899963%, 62.434387%, 85.499573%)" offset="0.242188"/><stop stop-opacity="1" stop-color="rgb(46.113586%, 62.767029%, 85.699463%)" offset="0.246094"/><stop stop-opacity="1" stop-color="rgb(46.327209%, 63.09967%, 85.899353%)" offset="0.25"/><stop stop-opacity="1" stop-color="rgb(46.713257%, 63.304138%, 85.903931%)" offset="0.253906"/><stop stop-opacity="1" stop-color="rgb(47.099304%, 63.508606%, 85.908508%)" offset="0.257812"/><stop stop-opacity="1" stop-color="rgb(47.294617%, 63.899231%, 86.103821%)" offset="0.261719"/><stop stop-opacity="1" stop-color="rgb(47.489929%, 64.289856%, 86.299133%)" offset="0.265625"/><stop stop-opacity="1" stop-color="rgb(47.679138%, 64.729309%, 86.499023%)" offset="0.269531"/><stop stop-opacity="1" stop-color="rgb(47.869873%, 65.170288%, 86.698914%)" offset="0.273437"/><stop stop-opacity="1" stop-color="rgb(48.434448%, 65.361023%, 86.898804%)" offset="0.277344"/><stop stop-opacity="1" stop-color="rgb(48.999023%, 65.551758%, 87.098694%)" offset="0.28125"/><stop stop-opacity="1" stop-color="rgb(49.215698%, 65.942383%, 87.298584%)" offset="0.285156"/><stop stop-opacity="1" stop-color="rgb(49.432373%, 66.333008%, 87.5%)" offset="0.289062"/><stop stop-opacity="1" stop-color="rgb(49.822998%, 66.522217%, 87.504578%)" offset="0.292969"/><stop stop-opacity="1" stop-color="rgb(50.213623%, 66.712952%, 87.510681%)" offset="0.296875"/><stop stop-opacity="1" stop-color="rgb(50.604248%, 67.103577%, 87.654114%)" offset="0.300781"/><stop stop-opacity="1" stop-color="rgb(50.994873%, 67.494202%, 87.799072%)" offset="0.304688"/><stop stop-opacity="1" stop-color="rgb(51.185608%, 67.64679%, 87.986755%)" offset="0.3125"/><stop stop-opacity="1" stop-color="rgb(51.786804%, 68.028259%, 88.186646%)" offset="0.316406"/><stop stop-opacity="1" stop-color="rgb(52.198792%, 68.257141%, 88.198853%)" offset="0.320313"/><stop stop-opacity="1" stop-color="rgb(52.368164%, 68.647766%, 88.398743%)" offset="0.324219"/><stop stop-opacity="1" stop-color="rgb(52.537537%, 69.038391%, 88.598633%)" offset="0.328125"/><stop stop-opacity="1" stop-color="rgb(52.928162%, 69.418335%, 88.798523%)" offset="0.332031"/><stop stop-opacity="1" stop-color="rgb(53.318787%, 69.799805%, 88.999939%)" offset="0.335938"/><stop stop-opacity="1" stop-color="rgb(53.709412%, 69.799805%, 88.999939%)" offset="0.339844"/><stop stop-opacity="1" stop-color="rgb(54.100037%, 69.799805%, 88.999939%)" offset="0.34375"/><stop stop-opacity="1" stop-color="rgb(54.299927%, 70.19043%, 88.999939%)" offset="0.347656"/><stop stop-opacity="1" stop-color="rgb(54.499817%, 70.581055%, 88.999939%)" offset="0.351562"/><stop stop-opacity="1" stop-color="rgb(54.930115%, 70.7901%, 89.199829%)" offset="0.355469"/><stop stop-opacity="1" stop-color="rgb(55.361938%, 70.999146%, 89.399719%)" offset="0.359375"/><stop stop-opacity="1" stop-color="rgb(55.552673%, 71.220398%, 89.421082%)" offset="0.363281"/><stop stop-opacity="1" stop-color="rgb(55.743408%, 71.443176%, 89.44397%)" offset="0.367188"/><stop stop-opacity="1" stop-color="rgb(56.134033%, 71.633911%, 89.620972%)" offset="0.371094"/><stop stop-opacity="1" stop-color="rgb(56.524658%, 71.824646%, 89.7995%)" offset="0.375"/><stop stop-opacity="1" stop-color="rgb(56.715393%, 72.013855%, 89.802551%)" offset="0.382812"/><stop stop-opacity="1" stop-color="rgb(57.247925%, 72.544861%, 90.002441%)" offset="0.386719"/><stop stop-opacity="1" stop-color="rgb(57.589722%, 72.886658%, 90.19928%)" offset="0.390625"/><stop stop-opacity="1" stop-color="rgb(57.827759%, 73.092651%, 90.232849%)" offset="0.394531"/><stop stop-opacity="1" stop-color="rgb(58.067322%, 73.298645%, 90.267944%)" offset="0.398437"/><stop stop-opacity="1" stop-color="rgb(58.457947%, 73.522949%, 90.432739%)" offset="0.402344"/><stop stop-opacity="1" stop-color="rgb(58.848572%, 73.748779%, 90.59906%)" offset="0.40625"/><stop stop-opacity="1" stop-color="rgb(59.039307%, 73.939514%, 90.614319%)" offset="0.414062"/><stop stop-opacity="1" stop-color="rgb(59.620667%, 74.319458%, 90.814209%)" offset="0.417969"/><stop stop-opacity="1" stop-color="rgb(60.011292%, 74.510193%, 90.99884%)" offset="0.421875"/><stop stop-opacity="1" stop-color="rgb(60.205078%, 74.703979%, 90.99884%)" offset="0.429687"/><stop stop-opacity="1" stop-color="rgb(60.784912%, 75.285339%, 91.19873%)" offset="0.433594"/><stop stop-opacity="1" stop-color="rgb(61.172485%, 75.672913%, 91.398621%)" offset="0.4375"/><stop stop-opacity="1" stop-color="rgb(61.186218%, 75.68512%, 91.398621%)" offset="0.5"/><stop stop-opacity="1" stop-color="rgb(61.199951%, 75.698853%, 91.398621%)" offset="1"/></linearGradient><clipPath id="cca70481ce"><path d="M 93.046875 75.894531 L 118.117188 75.894531 L 118.117188 108.164062 L 93.046875 108.164062 Z M 93.046875 75.894531 " clip-rule="nonzero"/></clipPath><clipPath id="f77dc4a79e"><path d="M 93.046875 83.878906 L 93.046875 87.179688 L 95.023438 88.324219 L 95.003906 88.324219 L 98.070312 90.101562 C 98.484375 90.339844 98.707031 90.574219 98.738281 90.8125 L 98.738281 90.835938 C 98.75 90.878906 98.757812 90.921875 98.757812 90.964844 L 98.757812 90.988281 C 98.757812 91.003906 98.75 91.019531 98.738281 91.035156 L 98.738281 104.441406 L 104.292969 107.609375 C 105.195312 108.15625 106.101562 108.164062 107.003906 107.628906 L 113.496094 103.886719 L 113.496094 100.875 L 118.117188 98.144531 L 118.117188 76.101562 C 118.046875 76.304688 117.824219 76.515625 117.449219 76.726562 L 107.003906 82.746094 C 106.101562 83.28125 105.195312 83.273438 104.292969 82.726562 L 93.714844 76.703125 C 93.277344 76.425781 93.054688 76.15625 93.046875 75.894531 L 93.046875 83.878906 " clip-rule="nonzero"/></clipPath><linearGradient x1="0.0035062" gradientTransform="matrix(25.337107, 0, 0, -25.328715, 92.958243, 91.959685)" y1="0" x2="0.992944" gradientUnits="userSpaceOnUse" y2="0" id="1ff4860eb9"><stop stop-opacity="1" stop-color="rgb(59.999084%, 55.699158%, 81.199646%)" offset="0"/><stop stop-opacity="1" stop-color="rgb(59.999084%, 55.699158%, 81.199646%)" offset="0.25"/><stop stop-opacity="1" stop-color="rgb(59.999084%, 55.699158%, 81.199646%)" offset="0.3125"/><stop stop-opacity="1" stop-color="rgb(59.999084%, 55.793762%, 81.199646%)" offset="0.328125"/><stop stop-opacity="1" stop-color="rgb(59.999084%, 55.990601%, 81.199646%)" offset="0.34375"/><stop stop-opacity="1" stop-color="rgb(60.398865%, 56.29425%, 81.359863%)" offset="0.347656"/><stop stop-opacity="1" stop-color="rgb(60.798645%, 56.498718%, 81.521606%)" offset="0.351562"/><stop stop-opacity="1" stop-color="rgb(61.199951%, 56.900024%, 81.759644%)" offset="0.355469"/><stop stop-opacity="1" stop-color="rgb(61.602783%, 57.301331%, 81.999207%)" offset="0.359375"/><stop stop-opacity="1" stop-color="rgb(61.993408%, 57.643127%, 82.191467%)" offset="0.363281"/><stop stop-opacity="1" stop-color="rgb(62.384033%, 57.984924%, 82.383728%)" offset="0.367188"/><stop stop-opacity="1" stop-color="rgb(62.724304%, 58.192444%, 82.391357%)" offset="0.371094"/><stop stop-opacity="1" stop-color="rgb(63.066101%, 58.399963%, 82.398987%)" offset="0.375"/><stop stop-opacity="1" stop-color="rgb(63.456726%, 58.773804%, 82.548523%)" offset="0.378906"/><stop stop-opacity="1" stop-color="rgb(63.847351%, 59.147644%, 82.699585%)" offset="0.382812"/><stop stop-opacity="1" stop-color="rgb(64.402771%, 59.538269%, 82.899475%)" offset="0.386719"/><stop stop-opacity="1" stop-color="rgb(64.958191%, 59.928894%, 83.099365%)" offset="0.390625"/><stop stop-opacity="1" stop-color="rgb(65.434265%, 60.369873%, 83.299255%)" offset="0.394531"/><stop stop-opacity="1" stop-color="rgb(65.910339%, 60.810852%, 83.499146%)" offset="0.398438"/><stop stop-opacity="1" stop-color="rgb(66.300964%, 61.201477%, 83.695984%)" offset="0.402344"/><stop stop-opacity="1" stop-color="rgb(66.691589%, 61.592102%, 83.892822%)" offset="0.40625"/><stop stop-opacity="1" stop-color="rgb(66.882324%, 61.982727%, 84.083557%)" offset="0.410156"/><stop stop-opacity="1" stop-color="rgb(67.074585%, 62.373352%, 84.274292%)" offset="0.414062"/><stop stop-opacity="1" stop-color="rgb(67.26532%, 62.713623%, 84.286499%)" offset="0.417969"/><stop stop-opacity="1" stop-color="rgb(67.456055%, 63.05542%, 84.298706%)" offset="0.421875"/><stop stop-opacity="1" stop-color="rgb(67.796326%, 63.446045%, 84.498596%)" offset="0.425781"/><stop stop-opacity="1" stop-color="rgb(68.136597%, 63.83667%, 84.698486%)" offset="0.429688"/><stop stop-opacity="1" stop-color="rgb(68.327332%, 64.027405%, 84.898376%)" offset="0.433594"/><stop stop-opacity="1" stop-color="rgb(68.518066%, 64.21814%, 85.099792%)" offset="0.4375"/><stop stop-opacity="1" stop-color="rgb(68.959045%, 64.657593%, 85.299683%)" offset="0.441406"/><stop stop-opacity="1" stop-color="rgb(69.400024%, 65.098572%, 85.499573%)" offset="0.445312"/><stop stop-opacity="1" stop-color="rgb(69.599915%, 65.289307%, 85.499573%)" offset="0.449219"/><stop stop-opacity="1" stop-color="rgb(69.799805%, 65.481567%, 85.499573%)" offset="0.453125"/><stop stop-opacity="1" stop-color="rgb(70.181274%, 65.872192%, 85.699463%)" offset="0.457031"/><stop stop-opacity="1" stop-color="rgb(70.562744%, 66.262817%, 85.899353%)" offset="0.460938"/><stop stop-opacity="1" stop-color="rgb(70.953369%, 66.653442%, 86.099243%)" offset="0.464844"/><stop stop-opacity="1" stop-color="rgb(71.34552%, 67.045593%, 86.299133%)" offset="0.46875"/><stop stop-opacity="1" stop-color="rgb(71.736145%, 67.39502%, 86.499023%)" offset="0.472656"/><stop stop-opacity="1" stop-color="rgb(72.12677%, 67.744446%, 86.698914%)" offset="0.476562"/><stop stop-opacity="1" stop-color="rgb(72.512817%, 67.976379%, 86.703491%)" offset="0.480469"/><stop stop-opacity="1" stop-color="rgb(72.898865%, 68.208313%, 86.708069%)" offset="0.484375"/><stop stop-opacity="1" stop-color="rgb(73.094177%, 68.598938%, 86.903381%)" offset="0.488281"/><stop stop-opacity="1" stop-color="rgb(73.28949%, 68.989563%, 87.098694%)" offset="0.492188"/><stop stop-opacity="1" stop-color="rgb(73.493958%, 69.194031%, 87.298584%)" offset="0.496094"/><stop stop-opacity="1" stop-color="rgb(73.699951%, 69.398499%, 87.5%)" offset="0.5"/><stop stop-opacity="1" stop-color="rgb(74.076843%, 69.775391%, 87.631226%)" offset="0.503906"/><stop stop-opacity="1" stop-color="rgb(74.453735%, 70.152283%, 87.763977%)" offset="0.507812"/><stop stop-opacity="1" stop-color="rgb(74.84436%, 70.542908%, 87.780762%)" offset="0.511719"/><stop stop-opacity="1" stop-color="rgb(75.234985%, 70.935059%, 87.799072%)" offset="0.515625"/><stop stop-opacity="1" stop-color="rgb(75.474548%, 71.374512%, 88.006592%)" offset="0.519531"/><stop stop-opacity="1" stop-color="rgb(75.715637%, 71.815491%, 88.215637%)" offset="0.523438"/><stop stop-opacity="1" stop-color="rgb(76.106262%, 72.006226%, 88.406372%)" offset="0.527344"/><stop stop-opacity="1" stop-color="rgb(76.498413%, 72.198486%, 88.598633%)" offset="0.53125"/><stop stop-opacity="1" stop-color="rgb(76.889038%, 72.538757%, 88.789368%)" offset="0.535156"/><stop stop-opacity="1" stop-color="rgb(77.279663%, 72.879028%, 88.980103%)" offset="0.539063"/><stop stop-opacity="1" stop-color="rgb(77.438354%, 73.269653%, 88.989258%)" offset="0.542969"/><stop stop-opacity="1" stop-color="rgb(77.598572%, 73.660278%, 88.999939%)" offset="0.546875"/><stop stop-opacity="1" stop-color="rgb(77.970886%, 73.851013%, 89.199829%)" offset="0.550781"/><stop stop-opacity="1" stop-color="rgb(78.343201%, 74.043274%, 89.399719%)" offset="0.554688"/><stop stop-opacity="1" stop-color="rgb(78.733826%, 74.433899%, 89.599609%)" offset="0.558594"/><stop stop-opacity="1" stop-color="rgb(79.124451%, 74.824524%, 89.7995%)" offset="0.5625"/><stop stop-opacity="1" stop-color="rgb(79.364014%, 75.265503%, 89.99939%)" offset="0.566406"/><stop stop-opacity="1" stop-color="rgb(79.605103%, 75.706482%, 90.19928%)" offset="0.570312"/><stop stop-opacity="1" stop-color="rgb(79.995728%, 75.901794%, 90.19928%)" offset="0.574219"/><stop stop-opacity="1" stop-color="rgb(80.387878%, 76.098633%, 90.19928%)" offset="0.578125"/><stop stop-opacity="1" stop-color="rgb(80.392456%, 76.098633%, 90.19928%)" offset="0.59375"/><stop stop-opacity="1" stop-color="rgb(80.39856%, 76.098633%, 90.19928%)" offset="0.625"/><stop stop-opacity="1" stop-color="rgb(80.39856%, 76.098633%, 90.19928%)" offset="0.75"/><stop stop-opacity="1" stop-color="rgb(80.39856%, 76.098633%, 90.19928%)" offset="1"/></linearGradient><clipPath id="ed9f127755"><path d="M 73.6875 90.964844 L 98.839844 90.964844 L 98.839844 119.246094 L 73.6875 119.246094 Z M 73.6875 90.964844 " clip-rule="nonzero"/></clipPath><clipPath id="8ab61ad21f"><path d="M 98.738281 104.441406 L 98.738281 91.035156 C 98.664062 91.257812 98.441406 91.464844 98.070312 91.65625 L 87.601562 97.699219 C 86.695312 98.21875 85.792969 98.226562 84.890625 97.722656 L 79.488281 94.589844 L 79.445312 94.589844 L 78.511719 94.035156 L 78.511719 94.011719 L 74.355469 91.65625 C 73.914062 91.375 73.691406 91.148438 73.6875 90.964844 L 73.6875 111.851562 C 73.6875 112.132812 73.910156 112.40625 74.355469 112.675781 L 84.914062 118.695312 C 85.769531 119.214844 86.625 119.246094 87.480469 118.792969 C 87.527344 118.773438 87.574219 118.746094 87.625 118.71875 L 98.089844 112.695312 C 98.625 112.386719 98.839844 112.082031 98.738281 111.785156 L 98.746094 111.140625 L 98.757812 110.207031 L 98.738281 110.230469 C 98.765625 110.125 98.765625 110.046875 98.738281 109.984375 L 98.738281 104.441406 " clip-rule="nonzero"/></clipPath><linearGradient x1="0.00438731" gradientTransform="matrix(25.336886, 0, 0, -25.328492, 73.577305, 105.039413)" y1="0" x2="0.997054" gradientUnits="userSpaceOnUse" y2="0" id="d5f1830815"><stop stop-opacity="1" stop-color="rgb(97.299194%, 61.199951%, 5.899048%)" offset="0"/><stop stop-opacity="1" stop-color="rgb(97.299194%, 61.199951%, 5.899048%)" offset="0.25"/><stop stop-opacity="1" stop-color="rgb(97.299194%, 61.199951%, 5.899048%)" offset="0.3125"/><stop stop-opacity="1" stop-color="rgb(97.299194%, 61.199951%, 5.899048%)" offset="0.328125"/><stop stop-opacity="1" stop-color="rgb(97.299194%, 61.199951%, 5.888367%)" offset="0.335938"/><stop stop-opacity="1" stop-color="rgb(97.299194%, 61.399841%, 5.688477%)" offset="0.339844"/><stop stop-opacity="1" stop-color="rgb(97.299194%, 61.599731%, 5.499268%)" offset="0.34375"/><stop stop-opacity="1" stop-color="rgb(97.299194%, 61.790466%, 5.499268%)" offset="0.351563"/><stop stop-opacity="1" stop-color="rgb(97.299194%, 62.341309%, 5.499268%)" offset="0.355469"/><stop stop-opacity="1" stop-color="rgb(97.299194%, 62.69989%, 5.499268%)" offset="0.359375"/><stop stop-opacity="1" stop-color="rgb(97.299194%, 62.921143%, 5.476379%)" offset="0.363281"/><stop stop-opacity="1" stop-color="rgb(97.299194%, 63.143921%, 5.453491%)" offset="0.367188"/><stop stop-opacity="1" stop-color="rgb(97.299194%, 63.520813%, 5.276489%)" offset="0.371094"/><stop stop-opacity="1" stop-color="rgb(97.299194%, 63.899231%, 5.099487%)" offset="0.375"/><stop stop-opacity="1" stop-color="rgb(97.299194%, 64.102173%, 5.099487%)" offset="0.378906"/><stop stop-opacity="1" stop-color="rgb(97.299194%, 64.306641%, 5.099487%)" offset="0.382813"/><stop stop-opacity="1" stop-color="rgb(97.444153%, 64.697266%, 5.099487%)" offset="0.386719"/><stop stop-opacity="1" stop-color="rgb(97.590637%, 65.087891%, 5.099487%)" offset="0.390625"/><stop stop-opacity="1" stop-color="rgb(97.595215%, 65.327454%, 5.064392%)" offset="0.394531"/><stop stop-opacity="1" stop-color="rgb(97.599792%, 65.568542%, 5.029297%)" offset="0.398438"/><stop stop-opacity="1" stop-color="rgb(97.599792%, 65.759277%, 4.864502%)" offset="0.40625"/><stop stop-opacity="1" stop-color="rgb(97.599792%, 66.340637%, 4.699707%)" offset="0.410156"/><stop stop-opacity="1" stop-color="rgb(97.599792%, 66.731262%, 4.699707%)" offset="0.414063"/><stop stop-opacity="1" stop-color="rgb(97.599792%, 67.114258%, 4.699707%)" offset="0.417969"/><stop stop-opacity="1" stop-color="rgb(97.599792%, 67.498779%, 4.699707%)" offset="0.421875"/><stop stop-opacity="1" stop-color="rgb(97.599792%, 67.64679%, 4.699707%)" offset="0.429688"/><stop stop-opacity="1" stop-color="rgb(97.599792%, 67.996216%, 4.512024%)" offset="0.433594"/><stop stop-opacity="1" stop-color="rgb(97.599792%, 68.199158%, 4.324341%)" offset="0.4375"/><stop stop-opacity="1" stop-color="rgb(97.599792%, 68.426514%, 4.312134%)" offset="0.441406"/><stop stop-opacity="1" stop-color="rgb(97.599792%, 68.65387%, 4.299927%)" offset="0.445312"/><stop stop-opacity="1" stop-color="rgb(97.799683%, 69.044495%, 4.299927%)" offset="0.449219"/><stop stop-opacity="1" stop-color="rgb(97.999573%, 69.43512%, 4.299927%)" offset="0.453125"/><stop stop-opacity="1" stop-color="rgb(97.999573%, 69.625854%, 4.299927%)" offset="0.460938"/><stop stop-opacity="1" stop-color="rgb(97.999573%, 70.207214%, 4.100037%)" offset="0.464844"/><stop stop-opacity="1" stop-color="rgb(97.999573%, 70.597839%, 3.901672%)" offset="0.46875"/><stop stop-opacity="1" stop-color="rgb(97.999573%, 70.988464%, 3.900146%)" offset="0.472656"/><stop stop-opacity="1" stop-color="rgb(97.999573%, 71.379089%, 3.898621%)" offset="0.476563"/><stop stop-opacity="1" stop-color="rgb(97.999573%, 71.618652%, 3.898621%)" offset="0.480469"/><stop stop-opacity="1" stop-color="rgb(97.999573%, 71.859741%, 3.898621%)" offset="0.484375"/><stop stop-opacity="1" stop-color="rgb(97.999573%, 72.200012%, 3.898621%)" offset="0.488281"/><stop stop-opacity="1" stop-color="rgb(97.999573%, 72.540283%, 3.898621%)" offset="0.492188"/><stop stop-opacity="1" stop-color="rgb(97.810364%, 72.930908%, 3.887939%)" offset="0.496094"/><stop stop-opacity="1" stop-color="rgb(97.621155%, 73.321533%, 3.877258%)" offset="0.5"/><stop stop-opacity="1" stop-color="rgb(97.810364%, 73.710632%, 3.688049%)" offset="0.503906"/><stop stop-opacity="1" stop-color="rgb(97.999573%, 74.099731%, 3.49884%)" offset="0.507812"/><stop stop-opacity="1" stop-color="rgb(97.999573%, 74.290466%, 3.49884%)" offset="0.515625"/><stop stop-opacity="1" stop-color="rgb(98.199463%, 74.723816%, 3.466797%)" offset="0.519531"/><stop stop-opacity="1" stop-color="rgb(98.399353%, 74.964905%, 3.434753%)" offset="0.523438"/><stop stop-opacity="1" stop-color="rgb(98.399353%, 75.35553%, 3.266907%)" offset="0.527344"/><stop stop-opacity="1" stop-color="rgb(98.399353%, 75.746155%, 3.09906%)" offset="0.53125"/><stop stop-opacity="1" stop-color="rgb(98.399353%, 76.135254%, 3.09906%)" offset="0.535156"/><stop stop-opacity="1" stop-color="rgb(98.399353%, 76.525879%, 3.09906%)" offset="0.539062"/><stop stop-opacity="1" stop-color="rgb(98.399353%, 76.911926%, 3.09906%)" offset="0.542969"/><stop stop-opacity="1" stop-color="rgb(98.399353%, 77.2995%, 3.09906%)" offset="0.546875"/><stop stop-opacity="1" stop-color="rgb(98.399353%, 77.444458%, 2.903748%)" offset="0.554687"/><stop stop-opacity="1" stop-color="rgb(98.213196%, 77.780151%, 2.703857%)" offset="0.5625"/><stop stop-opacity="1" stop-color="rgb(98.213196%, 78.384399%, 2.69928%)" offset="0.566406"/><stop stop-opacity="1" stop-color="rgb(98.399353%, 78.799438%, 2.69928%)" offset="0.570312"/><stop stop-opacity="1" stop-color="rgb(98.399353%, 78.799438%, 2.69928%)" offset="0.578125"/><stop stop-opacity="1" stop-color="rgb(98.399353%, 78.799438%, 2.69928%)" offset="0.59375"/><stop stop-opacity="1" stop-color="rgb(98.399353%, 78.799438%, 2.69928%)" offset="0.625"/><stop stop-opacity="1" stop-color="rgb(98.399353%, 78.799438%, 2.69928%)" offset="0.75"/><stop stop-opacity="1" stop-color="rgb(98.399353%, 78.799438%, 2.69928%)" offset="1"/></linearGradient><clipPath id="d86c683e8a"><path d="M 93.046875 46.019531 L 118.144531 46.019531 L 118.144531 83.28125 L 93.046875 83.28125 Z M 93.046875 46.019531 " clip-rule="nonzero"/></clipPath><clipPath id="0d0b0941f1"><path d="M 93.046875 53.242188 L 93.046875 70.726562 C 93.046875 70.757812 93.046875 70.785156 93.046875 70.816406 L 93.046875 75.894531 C 93.054688 76.15625 93.277344 76.425781 93.714844 76.703125 L 104.292969 82.726562 C 105.195312 83.273438 106.101562 83.28125 107.003906 82.746094 L 117.449219 76.726562 C 117.824219 76.515625 118.046875 76.304688 118.117188 76.101562 L 118.140625 74.214844 L 118.117188 74.238281 C 118.144531 74.148438 118.144531 74.066406 118.117188 73.992188 L 118.117188 70.792969 C 118.117188 70.765625 118.117188 70.742188 118.117188 70.726562 L 118.117188 46.066406 C 118.042969 46.273438 117.8125 46.488281 117.425781 46.710938 L 106.980469 52.753906 C 106.078125 53.269531 105.167969 53.28125 104.25 52.773438 L 98.847656 49.621094 L 98.824219 49.621094 L 97.867188 49.085938 L 97.890625 49.066406 L 93.714844 46.6875 C 93.273438 46.421875 93.050781 46.199219 93.046875 46.019531 L 93.046875 53.242188 " clip-rule="nonzero"/></clipPath><linearGradient x1="0.0035062" gradientTransform="matrix(25.337107, 0, 0, -25.328715, 92.958243, 64.580916)" y1="0" x2="0.994109" gradientUnits="userSpaceOnUse" y2="0" id="18e9e3a1f3"><stop stop-opacity="1" stop-color="rgb(59.999084%, 55.699158%, 81.199646%)" offset="0"/><stop stop-opacity="1" stop-color="rgb(59.999084%, 55.699158%, 81.199646%)" offset="0.25"/><stop stop-opacity="1" stop-color="rgb(59.999084%, 55.699158%, 81.199646%)" offset="0.3125"/><stop stop-opacity="1" stop-color="rgb(59.999084%, 55.793762%, 81.199646%)" offset="0.328125"/><stop stop-opacity="1" stop-color="rgb(59.999084%, 55.990601%, 81.199646%)" offset="0.34375"/><stop stop-opacity="1" stop-color="rgb(60.562134%, 56.295776%, 81.362915%)" offset="0.347656"/><stop stop-opacity="1" stop-color="rgb(61.126709%, 56.498718%, 81.52771%)" offset="0.351562"/><stop stop-opacity="1" stop-color="rgb(61.367798%, 56.90155%, 81.762695%)" offset="0.355469"/><stop stop-opacity="1" stop-color="rgb(61.608887%, 57.305908%, 81.999207%)" offset="0.359375"/><stop stop-opacity="1" stop-color="rgb(61.999512%, 57.647705%, 82.194519%)" offset="0.363281"/><stop stop-opacity="1" stop-color="rgb(62.390137%, 57.991028%, 82.389832%)" offset="0.367188"/><stop stop-opacity="1" stop-color="rgb(62.730408%, 58.195496%, 82.394409%)" offset="0.371094"/><stop stop-opacity="1" stop-color="rgb(63.072205%, 58.399963%, 82.398987%)" offset="0.375"/><stop stop-opacity="1" stop-color="rgb(63.46283%, 58.776855%, 82.548523%)" offset="0.378906"/><stop stop-opacity="1" stop-color="rgb(63.853455%, 59.153748%, 82.699585%)" offset="0.382812"/><stop stop-opacity="1" stop-color="rgb(64.44397%, 59.544373%, 82.899475%)" offset="0.386719"/><stop stop-opacity="1" stop-color="rgb(65.036011%, 59.934998%, 83.099365%)" offset="0.390625"/><stop stop-opacity="1" stop-color="rgb(65.47699%, 60.385132%, 83.308411%)" offset="0.394531"/><stop stop-opacity="1" stop-color="rgb(65.917969%, 60.835266%, 83.517456%)" offset="0.398438"/><stop stop-opacity="1" stop-color="rgb(66.308594%, 61.416626%, 83.708191%)" offset="0.402344"/><stop stop-opacity="1" stop-color="rgb(66.699219%, 61.999512%, 83.898926%)" offset="0.40625"/><stop stop-opacity="1" stop-color="rgb(66.889954%, 62.190247%, 84.089661%)" offset="0.414062"/><stop stop-opacity="1" stop-color="rgb(67.425537%, 62.721252%, 84.289551%)" offset="0.417969"/><stop stop-opacity="1" stop-color="rgb(67.771912%, 63.063049%, 84.298706%)" offset="0.421875"/><stop stop-opacity="1" stop-color="rgb(67.958069%, 63.453674%, 84.498596%)" offset="0.425781"/><stop stop-opacity="1" stop-color="rgb(68.144226%, 63.844299%, 84.698486%)" offset="0.429688"/><stop stop-opacity="1" stop-color="rgb(68.371582%, 64.035034%, 84.898376%)" offset="0.433594"/><stop stop-opacity="1" stop-color="rgb(68.598938%, 64.225769%, 85.099792%)" offset="0.4375"/><stop stop-opacity="1" stop-color="rgb(69.003296%, 64.666748%, 85.299683%)" offset="0.441406"/><stop stop-opacity="1" stop-color="rgb(69.407654%, 65.107727%, 85.499573%)" offset="0.445312"/><stop stop-opacity="1" stop-color="rgb(69.602966%, 65.30304%, 85.499573%)" offset="0.449219"/><stop stop-opacity="1" stop-color="rgb(69.799805%, 65.499878%, 85.499573%)" offset="0.453125"/><stop stop-opacity="1" stop-color="rgb(70.185852%, 65.884399%, 85.699463%)" offset="0.457031"/><stop stop-opacity="1" stop-color="rgb(70.571899%, 66.270447%, 85.899353%)" offset="0.460938"/><stop stop-opacity="1" stop-color="rgb(70.962524%, 66.661072%, 86.099243%)" offset="0.464844"/><stop stop-opacity="1" stop-color="rgb(71.353149%, 67.053223%, 86.299133%)" offset="0.46875"/><stop stop-opacity="1" stop-color="rgb(71.743774%, 67.401123%, 86.499023%)" offset="0.472656"/><stop stop-opacity="1" stop-color="rgb(72.134399%, 67.750549%, 86.698914%)" offset="0.476562"/><stop stop-opacity="1" stop-color="rgb(72.515869%, 67.982483%, 86.706543%)" offset="0.480469"/><stop stop-opacity="1" stop-color="rgb(72.898865%, 68.215942%, 86.715698%)" offset="0.484375"/><stop stop-opacity="1" stop-color="rgb(73.098755%, 68.606567%, 86.906433%)" offset="0.488281"/><stop stop-opacity="1" stop-color="rgb(73.298645%, 68.998718%, 87.098694%)" offset="0.492188"/><stop stop-opacity="1" stop-color="rgb(73.498535%, 69.198608%, 87.298584%)" offset="0.496094"/><stop stop-opacity="1" stop-color="rgb(73.699951%, 69.398499%, 87.5%)" offset="0.5"/><stop stop-opacity="1" stop-color="rgb(74.079895%, 69.960022%, 87.635803%)" offset="0.503906"/><stop stop-opacity="1" stop-color="rgb(74.461365%, 70.523071%, 87.771606%)" offset="0.507812"/><stop stop-opacity="1" stop-color="rgb(74.85199%, 70.732117%, 87.957764%)" offset="0.511719"/><stop stop-opacity="1" stop-color="rgb(75.242615%, 70.942688%, 88.143921%)" offset="0.515625"/><stop stop-opacity="1" stop-color="rgb(75.483704%, 71.383667%, 88.183594%)" offset="0.519531"/><stop stop-opacity="1" stop-color="rgb(75.724792%, 71.824646%, 88.224792%)" offset="0.523438"/><stop stop-opacity="1" stop-color="rgb(76.115417%, 72.013855%, 88.41095%)" offset="0.527344"/><stop stop-opacity="1" stop-color="rgb(76.506042%, 72.20459%, 88.598633%)" offset="0.53125"/><stop stop-opacity="1" stop-color="rgb(76.896667%, 72.546387%, 88.792419%)" offset="0.535156"/><stop stop-opacity="1" stop-color="rgb(77.288818%, 72.888184%, 88.987732%)" offset="0.539062"/><stop stop-opacity="1" stop-color="rgb(77.629089%, 73.278809%, 89.178467%)" offset="0.542969"/><stop stop-opacity="1" stop-color="rgb(77.970886%, 73.669434%, 89.370728%)" offset="0.546875"/><stop stop-opacity="1" stop-color="rgb(78.361511%, 73.884583%, 89.38446%)" offset="0.550781"/><stop stop-opacity="1" stop-color="rgb(78.752136%, 74.099731%, 89.399719%)" offset="0.554688"/><stop stop-opacity="1" stop-color="rgb(78.942871%, 74.633789%, 89.599609%)" offset="0.558594"/><stop stop-opacity="1" stop-color="rgb(79.133606%, 75.167847%, 89.7995%)" offset="0.5625"/><stop stop-opacity="1" stop-color="rgb(79.56543%, 75.440979%, 89.99939%)" offset="0.566406"/><stop stop-opacity="1" stop-color="rgb(79.998779%, 75.715637%, 90.19928%)" offset="0.570312"/><stop stop-opacity="1" stop-color="rgb(80.197144%, 75.906372%, 90.19928%)" offset="0.574219"/><stop stop-opacity="1" stop-color="rgb(80.397034%, 76.098633%, 90.19928%)" offset="0.578125"/><stop stop-opacity="1" stop-color="rgb(80.397034%, 76.098633%, 90.19928%)" offset="0.59375"/><stop stop-opacity="1" stop-color="rgb(80.39856%, 76.098633%, 90.19928%)" offset="0.625"/><stop stop-opacity="1" stop-color="rgb(80.39856%, 76.098633%, 90.19928%)" offset="0.75"/><stop stop-opacity="1" stop-color="rgb(80.39856%, 76.098633%, 90.19928%)" offset="1"/></linearGradient></defs><g clip-path="url(#ede976cca1)"><path fill="#f6fcfe" d="M 141.296875 132.738281 C 140.675781 132.265625 139.734375 131.8125 138.476562 131.382812 L 148.253906 125.71875 L 150.855469 127.203125 Z M 127.539062 132.894531 C 127.140625 132.582031 126.785156 132.316406 126.472656 132.09375 L 142.855469 122.605469 L 145.476562 124.09375 L 134.074219 130.671875 L 134.097656 130.695312 L 128.652344 133.847656 C 128.339844 133.566406 127.96875 133.25 127.539062 132.894531 Z M 128.117188 140.378906 L 125.519531 138.867188 L 137.230469 132.113281 C 137.601562 132.425781 138.082031 132.8125 138.675781 133.269531 C 138.925781 133.476562 139.164062 133.671875 139.386719 133.847656 Z M 122.71875 137.269531 L 120.117188 135.757812 L 124.808594 133.050781 C 124.984375 133.316406 125.199219 133.597656 125.449219 133.890625 C 125.824219 134.351562 126.191406 134.746094 126.5625 135.070312 Z M 127.339844 125.359375 C 127.621094 125.613281 127.984375 125.933594 128.429688 126.316406 C 128.785156 126.625 129.105469 126.902344 129.386719 127.136719 L 128.671875 127.558594 L 128.695312 127.582031 L 117.316406 134.136719 L 114.714844 132.648438 Z M 116.25 127.382812 C 116.53125 127.636719 116.8125 127.855469 117.09375 128.050781 L 111.917969 131.027344 L 109.316406 129.539062 L 114.984375 126.25 C 115.28125 126.53125 115.703125 126.90625 116.25 127.382812 Z M 60.21875 91.679688 C 59.820312 90.921875 59.433594 90.117188 59.066406 89.257812 C 64.636719 85.984375 70.382812 82.644531 76.308594 79.234375 C 76.429688 79.578125 76.644531 80.050781 76.957031 80.65625 C 77.132812 81.015625 77.308594 81.332031 77.488281 81.613281 C 75.753906 82.605469 74.007812 83.589844 72.242188 84.570312 C 68.230469 86.941406 64.21875 89.308594 60.21875 91.679688 Z M 62.953125 96.410156 C 62.433594 95.65625 61.960938 94.914062 61.53125 94.1875 C 62.628906 93.554688 63.722656 92.898438 64.820312 92.234375 C 64.996094 92.78125 65.214844 93.292969 65.464844 93.765625 C 65.613281 94.078125 65.777344 94.367188 65.953125 94.632812 C 64.945312 95.238281 63.945312 95.832031 62.953125 96.410156 Z M 62.355469 81.101562 C 62.472656 81.472656 62.640625 81.960938 62.863281 82.570312 C 62.984375 82.953125 63.117188 83.300781 63.265625 83.613281 C 61.5 84.621094 59.769531 85.632812 58.066406 86.65625 C 57.738281 85.785156 57.433594 84.945312 57.152344 84.148438 C 58.855469 83.125 60.589844 82.109375 62.355469 81.101562 Z M 67.464844 93.722656 C 66.886719 92.757812 66.355469 92.050781 65.863281 91.589844 C 66.933594 90.953125 68.015625 90.316406 69.109375 89.679688 C 69.289062 90.167969 69.511719 90.679688 69.777344 91.210938 C 69.96875 91.554688 70.140625 91.839844 70.289062 92.078125 C 69.339844 92.625 68.398438 93.175781 67.464844 93.722656 Z M 120.71875 118.539062 C 120.851562 118.660156 120.984375 118.769531 121.117188 118.871094 L 117.671875 120.851562 L 117.695312 120.871094 L 106.316406 127.449219 L 103.738281 125.960938 L 119.273438 116.960938 C 119.6875 117.496094 120.167969 118.019531 120.71875 118.539062 Z M 100.089844 35.203125 C 100.402344 36 100.738281 36.824219 101.089844 37.667969 C 98.542969 39.101562 96.011719 40.535156 93.492188 41.957031 C 93.269531 41.230469 92.855469 40.464844 92.246094 39.664062 C 94.839844 38.15625 97.457031 36.667969 100.089844 35.203125 Z M 72.84375 74.949219 C 72.902344 75.347656 73.035156 75.882812 73.242188 76.546875 C 73.347656 76.949219 73.472656 77.28125 73.621094 77.546875 C 72.464844 78.183594 71.324219 78.835938 70.199219 79.503906 C 68.496094 80.511719 66.792969 81.515625 65.085938 82.523438 C 64.996094 82.214844 64.878906 81.910156 64.730469 81.613281 C 64.449219 81.035156 64.144531 80.5625 63.820312 80.191406 C 66.796875 78.457031 69.804688 76.710938 72.84375 74.949219 Z M 76.957031 67.972656 C 77.074219 68.460938 77.207031 68.875 77.355469 69.214844 C 74.808594 70.640625 72.28125 72.0625 69.777344 73.480469 C 69.660156 73.183594 69.496094 72.824219 69.289062 72.394531 C 69.035156 71.875 68.820312 71.46875 68.644531 71.171875 C 71.296875 69.617188 73.957031 68.082031 76.621094 66.570312 C 76.683594 66.867188 76.792969 67.335938 76.957031 67.972656 Z M 67.554688 71.816406 C 67.613281 72.171875 67.703125 72.699219 67.820312 73.394531 C 67.9375 73.792969 68.066406 74.148438 68.199219 74.460938 C 65.546875 75.96875 62.902344 77.519531 60.265625 79.101562 C 60.101562 78.734375 59.914062 78.316406 59.710938 77.859375 C 59.53125 77.386719 59.367188 76.992188 59.21875 76.679688 C 61.976562 75.039062 64.753906 73.417969 67.554688 71.816406 Z M 83.957031 74.902344 C 84.296875 75.660156 84.636719 76.464844 84.976562 77.324219 C 83.050781 78.421875 81.132812 79.511719 79.222656 80.59375 C 78.898438 79.804688 78.460938 79.066406 77.910156 78.371094 C 79.910156 77.214844 81.925781 76.058594 83.957031 74.902344 Z M 82.910156 72.304688 C 80.363281 73.742188 77.828125 75.171875 75.308594 76.59375 C 75.089844 75.867188 74.675781 75.101562 74.066406 74.304688 C 76.660156 72.792969 79.273438 71.304688 81.910156 69.839844 C 82.222656 70.640625 82.554688 71.460938 82.910156 72.304688 Z M 77.753906 65.882812 C 78.496094 65.484375 79.230469 65.074219 79.957031 64.660156 C 80.28125 65.476562 80.601562 66.304688 80.910156 67.148438 C 80.1875 67.550781 79.472656 67.964844 78.777344 68.394531 C 78.40625 67.355469 78.066406 66.519531 77.753906 65.882812 Z M 91.023438 40.3125 C 91.082031 40.710938 91.21875 41.242188 91.421875 41.910156 C 91.527344 42.3125 91.65625 42.644531 91.800781 42.910156 C 90.644531 43.546875 89.503906 44.199219 88.378906 44.867188 C 86.675781 45.871094 84.972656 46.878906 83.269531 47.886719 C 83.179688 47.574219 83.058594 47.273438 82.910156 46.976562 C 82.628906 46.398438 82.328125 45.925781 82 45.554688 C 84.976562 43.820312 87.988281 42.074219 91.023438 40.3125 Z M 73.957031 45.488281 C 73.554688 44.734375 73.167969 43.925781 72.800781 43.066406 C 78.371094 39.792969 84.121094 36.453125 90.046875 33.046875 C 90.164062 33.386719 90.378906 33.859375 90.691406 34.46875 C 90.867188 34.824219 91.046875 35.140625 91.222656 35.421875 C 89.492188 36.414062 87.742188 37.402344 85.976562 38.378906 C 81.964844 40.746094 77.957031 43.117188 73.957031 45.488281 Z M 132.074219 116.363281 L 134.675781 117.871094 L 123.273438 124.425781 L 123.296875 124.449219 L 119.027344 126.917969 C 118.597656 126.648438 118.058594 126.359375 117.40625 126.050781 C 116.976562 125.84375 116.589844 125.664062 116.25 125.515625 Z M 137.453125 119.472656 L 140.078125 120.984375 L 131.074219 126.183594 C 130.71875 125.871094 130.238281 125.539062 129.628906 125.183594 C 129.257812 124.960938 128.910156 124.777344 128.585938 124.625 Z M 71.800781 40.464844 C 71.472656 39.59375 71.167969 38.757812 70.886719 37.957031 C 72.589844 36.933594 74.324219 35.917969 76.089844 34.910156 C 76.207031 35.28125 76.378906 35.769531 76.601562 36.378906 C 76.71875 36.761719 76.851562 37.109375 77 37.421875 C 75.238281 38.429688 73.503906 39.445312 71.800781 40.464844 Z M 160.878906 109.5625 C 159.855469 108.851562 158.996094 108.355469 158.300781 108.074219 L 164.4375 104.5 L 167.035156 106.007812 Z M 158.433594 109.851562 C 158.730469 110.089844 159.003906 110.304688 159.257812 110.496094 L 155.632812 112.5625 L 155.65625 112.609375 L 150.945312 115.316406 C 150.453125 115.019531 149.871094 114.703125 149.1875 114.363281 C 148.832031 114.183594 148.5 114.03125 148.1875 113.894531 L 157.210938 108.675781 C 157.507812 109 157.914062 109.394531 158.433594 109.851562 Z M 158.078125 114.429688 C 158.417969 114.890625 158.898438 115.363281 159.523438 115.851562 C 159.714844 116 159.910156 116.140625 160.101562 116.273438 L 157.324219 117.894531 C 157.011719 117.613281 156.648438 117.304688 156.234375 116.960938 C 155.832031 116.652344 155.441406 116.386719 155.054688 116.164062 Z M 162.101562 120.828125 C 162.234375 120.933594 162.359375 121.027344 162.480469 121.117188 L 155.078125 125.40625 L 152.5 123.894531 L 160.414062 119.316406 C 160.796875 119.730469 161.359375 120.234375 162.101562 120.828125 Z M 154.167969 118.25 C 154.523438 118.589844 154.855469 118.882812 155.167969 119.117188 L 149.699219 122.292969 L 147.078125 120.785156 L 153.167969 117.25 C 153.449219 117.5625 153.78125 117.894531 154.167969 118.25 Z M 146.675781 114.808594 C 147.3125 115.222656 148.136719 115.738281 149.144531 116.363281 L 144.277344 119.164062 L 141.699219 117.671875 Z M 137.054688 94.542969 L 144.519531 90.210938 L 147.144531 91.722656 L 139.230469 96.277344 C 138.578125 95.566406 137.855469 94.988281 137.054688 94.542969 Z M 139.386719 103.007812 C 138.855469 103.367188 138.59375 103.792969 138.609375 104.296875 C 138.609375 104.863281 138.949219 105.34375 139.632812 105.742188 C 139.644531 105.757812 139.652344 105.773438 139.652344 105.785156 C 140.335938 106.160156 141.140625 106.347656 142.078125 106.363281 C 142.90625 106.394531 143.632812 106.253906 144.253906 105.941406 C 144.328125 105.910156 144.402344 105.882812 144.476562 105.851562 C 145.144531 105.46875 145.476562 104.996094 145.476562 104.429688 C 145.460938 103.882812 145.121094 103.410156 144.453125 103.007812 C 144.453125 102.996094 144.445312 102.988281 144.433594 102.988281 C 144.386719 102.957031 144.335938 102.929688 144.277344 102.898438 C 143.640625 102.558594 142.882812 102.371094 142.007812 102.34375 C 141.105469 102.328125 140.328125 102.5 139.675781 102.851562 C 139.644531 102.867188 139.617188 102.882812 139.585938 102.898438 C 139.542969 102.929688 139.476562 102.964844 139.386719 103.007812 Z M 135.429688 100.632812 C 136.660156 99.921875 138.074219 99.476562 139.675781 99.296875 C 140.34375 99.210938 141.046875 99.171875 141.785156 99.1875 C 142.660156 99.21875 143.492188 99.292969 144.277344 99.410156 C 145.742188 99.691406 147.046875 100.179688 148.1875 100.875 L 148.164062 100.898438 C 149.796875 101.863281 150.683594 102.988281 150.832031 104.277344 C 150.863281 104.394531 150.878906 104.519531 150.878906 104.652344 C 150.890625 106.105469 150.03125 107.34375 148.300781 108.363281 C 146.550781 109.371094 144.433594 109.851562 141.941406 109.808594 C 139.4375 109.761719 137.296875 109.207031 135.519531 108.140625 L 135.539062 108.140625 C 133.761719 107.0625 132.867188 105.785156 132.851562 104.320312 C 132.835938 104.304688 132.835938 104.285156 132.851562 104.253906 C 132.835938 102.847656 133.695312 101.640625 135.429688 100.632812 Z M 118.117188 98.144531 L 120.984375 96.457031 L 118.117188 94.8125 Z M 169.8125 107.628906 L 172.457031 109.121094 L 162.636719 114.808594 C 162.472656 114.660156 162.292969 114.519531 162.101562 114.386719 C 161.433594 113.925781 160.699219 113.585938 159.898438 113.363281 Z M 175.234375 110.742188 L 177.8125 112.230469 L 163.789062 120.363281 C 163.226562 119.917969 162.796875 119.585938 162.5 119.363281 C 162.144531 119.09375 161.796875 118.886719 161.457031 118.738281 Z M 97.691406 28.714844 C 98.03125 29.46875 98.371094 30.273438 98.714844 31.132812 C 96.789062 32.230469 94.867188 33.320312 92.957031 34.402344 C 92.632812 33.617188 92.195312 32.875 91.644531 32.179688 C 93.644531 31.023438 95.660156 29.867188 97.691406 28.714844 Z M 95.644531 23.648438 C 95.957031 24.445312 96.292969 25.269531 96.648438 26.113281 C 94.097656 27.550781 91.566406 28.980469 89.046875 30.402344 C 88.824219 29.675781 88.410156 28.914062 87.800781 28.113281 C 90.394531 26.601562 93.011719 25.113281 95.644531 23.648438 Z M 87.355469 31.355469 C 86.199219 31.992188 85.058594 32.644531 83.933594 33.3125 C 82.230469 34.320312 80.527344 35.328125 78.824219 36.332031 C 78.734375 36.023438 78.613281 35.71875 78.46875 35.421875 C 78.1875 34.84375 77.882812 34.371094 77.554688 34 C 80.53125 32.269531 83.542969 30.519531 86.578125 28.757812 C 86.636719 29.15625 86.773438 29.691406 86.980469 30.355469 C 87.082031 30.757812 87.210938 31.089844 87.355469 31.355469 Z M 56.195312 81.457031 C 55.902344 80.613281 55.625 79.785156 55.375 78.96875 C 56.324219 78.394531 57.265625 77.832031 58.195312 77.28125 C 58.269531 77.609375 58.441406 78.171875 58.707031 78.96875 C 58.796875 79.296875 58.902344 79.570312 59.019531 79.792969 C 58.085938 80.371094 57.144531 80.925781 56.195312 81.457031 Z M 127.386719 113.316406 L 129.074219 114.296875 L 123.117188 117.738281 C 122.601562 117.292969 122.113281 116.921875 121.648438 116.628906 L 121.382812 116.785156 L 109.183594 109.785156 L 113.496094 107.296875 L 113.496094 105.488281 L 107.070312 109.230469 C 105.960938 109.867188 104.847656 109.867188 103.738281 109.230469 L 98.738281 106.363281 L 98.738281 109.851562 L 99.859375 110.496094 L 101.3125 109.652344 L 111.472656 115.472656 L 96.648438 124.050781 L 88.847656 119.585938 L 87.625 120.292969 C 86.511719 120.933594 85.402344 120.933594 84.289062 120.292969 L 71.445312 112.917969 C 70.96875 112.652344 70.6875 112.378906 70.597656 112.097656 C 70.582031 112.023438 70.589844 111.949219 70.621094 111.875 C 70.652344 111.578125 70.925781 111.289062 71.445312 111.007812 L 73.6875 109.707031 L 73.6875 108.519531 C 73.4375 108.269531 73.1875 108.015625 72.933594 107.765625 C 73.183594 107.601562 73.433594 107.4375 73.6875 107.277344 L 73.6875 103.6875 C 72.691406 104.300781 71.691406 104.921875 70.6875 105.542969 C 70.050781 104.800781 69.382812 104.066406 68.6875 103.34375 C 70.316406 102.351562 71.980469 101.347656 73.6875 100.332031 L 73.6875 96.777344 C 71.3125 98.191406 68.9375 99.601562 66.554688 101.011719 C 65.945312 100.285156 65.339844 99.558594 64.730469 98.832031 C 67.621094 97.070312 70.605469 95.289062 73.6875 93.488281 L 73.6875 90.878906 C 73.6875 90.847656 73.6875 90.828125 73.6875 90.8125 C 73.71875 90.542969 73.941406 90.292969 74.355469 90.058594 L 84.800781 84.035156 C 85.703125 83.515625 86.625 83.515625 87.558594 84.035156 L 88.902344 84.8125 C 88.941406 84.792969 88.980469 84.769531 89.023438 84.746094 C 89.101562 84.835938 89.179688 84.929688 89.257812 85.023438 L 90.558594 85.769531 L 90.558594 85.746094 L 93.046875 87.179688 L 93.046875 83.878906 C 92.839844 83.628906 92.632812 83.378906 92.421875 83.125 C 92.632812 83 92.839844 82.878906 93.046875 82.757812 L 93.046875 79.300781 C 92.246094 79.761719 91.445312 80.226562 90.644531 80.703125 C 90.128906 79.949219 89.644531 79.207031 89.199219 78.480469 C 90.210938 77.875 91.234375 77.265625 92.269531 76.660156 C 92.386719 76.867188 92.617188 77.480469 92.957031 78.503906 C 92.984375 78.582031 93.015625 78.660156 93.046875 78.738281 L 93.046875 70.816406 C 93.046875 70.785156 93.046875 70.757812 93.046875 70.726562 L 93.046875 70.605469 C 92.640625 70.644531 92.253906 70.566406 91.890625 70.371094 C 91.359375 70.105469 91.011719 69.683594 90.847656 69.105469 C 90.742188 68.707031 90.742188 68.320312 90.847656 67.949219 L 86.222656 65.417969 C 85.914062 65.773438 85.527344 66.03125 85.070312 66.195312 C 84.460938 66.386719 83.890625 66.34375 83.355469 66.0625 C 82.824219 65.792969 82.472656 65.371094 82.3125 64.792969 C 82.164062 64.230469 82.253906 63.667969 82.578125 63.105469 C 82.890625 62.574219 83.347656 62.203125 83.957031 61.996094 C 84.566406 61.816406 85.140625 61.863281 85.691406 62.128906 C 86.195312 62.410156 86.535156 62.839844 86.710938 63.417969 C 86.800781 63.699219 86.816406 63.980469 86.757812 64.261719 L 91.558594 66.863281 C 91.78125 66.640625 92.046875 66.46875 92.359375 66.351562 L 92.15625 57.574219 C 92.039062 57.515625 91.90625 57.460938 91.757812 57.417969 C 91.222656 57.136719 90.882812 56.714844 90.734375 56.152344 C 90.585938 55.574219 90.667969 55.019531 90.980469 54.484375 C 91.304688 53.9375 91.773438 53.566406 92.378906 53.375 C 92.605469 53.296875 92.828125 53.25 93.046875 53.242188 L 93.046875 48.464844 C 92.175781 48.957031 91.300781 49.445312 90.421875 49.929688 C 86.410156 52.300781 82.402344 54.671875 78.402344 57.039062 C 78 56.285156 77.613281 55.480469 77.246094 54.621094 C 82.816406 51.347656 88.566406 48.007812 94.492188 44.597656 C 94.496094 44.609375 94.5 44.621094 94.503906 44.632812 L 104.160156 39.089844 C 104.550781 38.859375 104.945312 38.730469 105.335938 38.699219 L 96.3125 16.382812 C 95.675781 14.84375 94.78125 14.40625 93.625 15.070312 L 39.195312 46.464844 C 38.039062 47.160156 37.765625 48.289062 38.371094 49.84375 L 56.195312 94.011719 C 60.699219 103.578125 67.902344 111.519531 77.800781 117.828125 L 78.53125 118.292969 L 78.578125 118.292969 L 127.40625 146.46875 L 127.453125 146.46875 C 128.800781 147.253906 130.066406 147.3125 131.253906 146.644531 L 185.636719 115.253906 C 186.824219 114.539062 186.734375 113.808594 185.371094 113.054688 L 136.984375 85.125 L 136.984375 86.902344 L 138.875 87.988281 C 139.453125 88.332031 139.734375 88.664062 139.71875 88.988281 C 139.703125 89.285156 139.421875 89.597656 138.875 89.921875 L 133.808594 92.855469 L 133.832031 92.878906 L 132.628906 93.542969 L 132.609375 93.542969 L 125.984375 97.410156 C 125.371094 97.761719 124.757812 97.921875 124.140625 97.890625 L 127.671875 99.988281 L 134.785156 95.878906 C 135.113281 96.085938 135.527344 96.332031 136.03125 96.613281 C 136.519531 96.921875 136.949219 97.175781 137.320312 97.367188 L 135.742188 98.277344 L 135.761719 98.296875 L 129.1875 102.097656 L 129.1875 107.484375 L 133.339844 109.875 Z M 80.53125 46.464844 C 80.652344 46.835938 80.824219 47.324219 81.046875 47.929688 C 81.164062 48.316406 81.296875 48.664062 81.445312 48.976562 C 79.683594 49.984375 77.949219 50.996094 76.246094 52.019531 C 75.917969 51.144531 75.613281 50.308594 75.332031 49.507812 C 77.035156 48.488281 78.769531 47.472656 80.53125 46.464844 Z M 54.417969 76.28125 C 54.152344 75.480469 53.847656 74.660156 53.507812 73.816406 C 61.597656 68.988281 69.746094 64.246094 77.957031 59.597656 C 78.222656 60.378906 78.554688 61.1875 78.957031 62.015625 C 74.792969 64.386719 70.6875 66.742188 66.640625 69.082031 L 66.640625 69.128906 C 62.539062 71.5 58.464844 73.882812 54.417969 76.28125 Z M 56.863281 43.066406 L 56.84375 43.042969 C 56.871094 43.042969 56.902344 43.035156 56.929688 43.019531 C 56.945312 43.007812 56.960938 42.992188 56.972656 42.976562 C 58.589844 42.027344 60.257812 41.578125 61.976562 41.621094 C 62.671875 41.652344 63.347656 41.769531 63.996094 41.976562 C 64.960938 42.230469 65.878906 42.695312 66.753906 43.375 L 66.640625 43.488281 C 68.289062 44.777344 69.414062 46.539062 70.019531 48.773438 C 70.570312 51.042969 70.453125 53.351562 69.664062 55.707031 L 69.621094 55.707031 C 68.703125 58.269531 67.167969 60.261719 65.019531 61.683594 C 64.144531 62.277344 63.273438 62.699219 62.398438 62.953125 L 62.417969 62.972656 C 60.851562 63.449219 59.300781 63.492188 57.773438 63.105469 C 57.6875 63.078125 57.597656 63.054688 57.507812 63.039062 C 56.945312 62.875 56.425781 62.65625 55.953125 62.375 L 54.820312 61.683594 L 54.429688 61.351562 C 53.691406 60.695312 53.0625 59.894531 52.527344 58.953125 C 51.242188 56.699219 50.832031 54.152344 51.308594 51.308594 L 51.441406 51.332031 C 51.75 49.566406 52.398438 47.960938 53.375 46.511719 C 54.324219 45.058594 55.484375 43.910156 56.863281 43.066406 " fill-opacity="1" fill-rule="evenodd"/></g><path fill="#d6dff3" d="M 141.296875 132.738281 L 150.855469 127.203125 L 148.253906 125.71875 L 138.476562 131.382812 C 139.734375 131.8125 140.675781 132.265625 141.296875 132.738281 Z M 128.117188 140.378906 L 139.386719 133.847656 C 139.164062 133.671875 138.925781 133.476562 138.675781 133.269531 C 138.082031 132.8125 137.601562 132.425781 137.230469 132.113281 L 125.519531 138.867188 Z M 116.25 127.382812 C 115.703125 126.90625 115.28125 126.53125 114.984375 126.25 L 109.316406 129.539062 L 111.917969 131.027344 L 117.09375 128.050781 C 116.8125 127.855469 116.53125 127.636719 116.25 127.382812 Z M 62.953125 96.410156 C 63.945312 95.832031 64.945312 95.238281 65.953125 94.632812 C 65.777344 94.367188 65.613281 94.078125 65.464844 93.765625 C 65.214844 93.292969 64.996094 92.78125 64.820312 92.234375 C 63.722656 92.898438 62.628906 93.554688 61.53125 94.1875 C 61.960938 94.914062 62.433594 95.65625 62.953125 96.410156 Z M 67.464844 93.722656 C 68.398438 93.175781 69.339844 92.625 70.289062 92.078125 C 70.140625 91.839844 69.96875 91.554688 69.777344 91.210938 C 69.511719 90.679688 69.289062 90.167969 69.109375 89.679688 C 68.015625 90.316406 66.933594 90.953125 65.863281 91.589844 C 66.355469 92.050781 66.886719 92.757812 67.464844 93.722656 Z M 62.355469 81.101562 C 60.589844 82.109375 58.855469 83.125 57.152344 84.148438 C 57.433594 84.945312 57.738281 85.785156 58.066406 86.65625 C 59.769531 85.632812 61.5 84.621094 63.265625 83.613281 C 63.117188 83.300781 62.984375 82.953125 62.863281 82.570312 C 62.640625 81.960938 62.472656 81.472656 62.355469 81.101562 Z M 120.71875 118.539062 C 120.167969 118.019531 119.6875 117.496094 119.273438 116.960938 L 103.738281 125.960938 L 106.316406 127.449219 L 117.695312 120.871094 L 117.671875 120.851562 L 121.117188 118.871094 C 120.984375 118.769531 120.851562 118.660156 120.71875 118.539062 Z M 100.089844 35.203125 C 97.457031 36.667969 94.839844 38.15625 92.246094 39.664062 C 92.855469 40.464844 93.269531 41.230469 93.492188 41.957031 C 96.011719 40.535156 98.542969 39.101562 101.089844 37.667969 C 100.738281 36.824219 100.402344 36 100.089844 35.203125 Z M 72.84375 74.949219 C 69.804688 76.710938 66.796875 78.457031 63.820312 80.191406 C 64.144531 80.5625 64.449219 81.035156 64.730469 81.613281 C 64.878906 81.910156 64.996094 82.214844 65.085938 82.523438 C 66.792969 81.515625 68.496094 80.511719 70.199219 79.503906 C 71.324219 78.835938 72.464844 78.183594 73.621094 77.546875 C 73.472656 77.28125 73.347656 76.949219 73.242188 76.546875 C 73.035156 75.882812 72.902344 75.347656 72.84375 74.949219 Z M 82.910156 72.304688 C 82.554688 71.460938 82.222656 70.640625 81.910156 69.839844 C 79.273438 71.304688 76.660156 72.792969 74.066406 74.304688 C 74.675781 75.101562 75.089844 75.867188 75.308594 76.59375 C 77.828125 75.171875 80.363281 73.742188 82.910156 72.304688 Z M 83.957031 74.902344 C 81.925781 76.058594 79.910156 77.214844 77.910156 78.371094 C 78.460938 79.066406 78.898438 79.804688 79.222656 80.59375 C 81.132812 79.511719 83.050781 78.421875 84.976562 77.324219 C 84.636719 76.464844 84.296875 75.660156 83.957031 74.902344 Z M 80.53125 46.464844 C 78.769531 47.472656 77.035156 48.488281 75.332031 49.507812 C 75.613281 50.308594 75.917969 51.144531 76.246094 52.019531 C 77.949219 50.996094 79.683594 49.984375 81.445312 48.976562 C 81.296875 48.664062 81.164062 48.316406 81.046875 47.929688 C 80.824219 47.324219 80.652344 46.835938 80.53125 46.464844 Z M 127.386719 113.316406 L 121.648438 116.628906 C 122.113281 116.921875 122.601562 117.292969 123.117188 117.738281 L 129.074219 114.296875 Z M 73.6875 108.519531 L 73.6875 107.277344 C 73.433594 107.4375 73.183594 107.601562 72.933594 107.765625 C 73.1875 108.015625 73.4375 108.269531 73.6875 108.519531 Z M 73.6875 100.332031 C 71.980469 101.347656 70.316406 102.351562 68.6875 103.34375 C 69.382812 104.066406 70.050781 104.800781 70.6875 105.542969 C 71.691406 104.921875 72.691406 104.300781 73.6875 103.6875 Z M 88.902344 84.8125 L 89.257812 85.023438 C 89.179688 84.929688 89.101562 84.835938 89.023438 84.746094 C 88.980469 84.769531 88.941406 84.792969 88.902344 84.8125 Z M 93.046875 83.878906 L 93.046875 82.757812 C 92.839844 82.878906 92.632812 83 92.421875 83.125 C 92.632812 83.378906 92.839844 83.628906 93.046875 83.878906 Z M 93.046875 78.738281 C 93.015625 78.660156 92.984375 78.582031 92.957031 78.503906 C 92.617188 77.480469 92.386719 76.867188 92.269531 76.660156 C 91.234375 77.265625 90.210938 77.875 89.199219 78.480469 C 89.644531 79.207031 90.128906 79.949219 90.644531 80.703125 C 91.445312 80.226562 92.246094 79.761719 93.046875 79.300781 Z M 91.023438 40.3125 C 87.988281 42.074219 84.976562 43.820312 82 45.554688 C 82.328125 45.925781 82.628906 46.398438 82.910156 46.976562 C 83.058594 47.273438 83.179688 47.574219 83.269531 47.886719 C 84.972656 46.878906 86.675781 45.871094 88.378906 44.867188 C 89.503906 44.199219 90.644531 43.546875 91.800781 42.910156 C 91.65625 42.644531 91.527344 42.3125 91.421875 41.910156 C 91.21875 41.242188 91.082031 40.710938 91.023438 40.3125 Z M 71.800781 40.464844 C 73.503906 39.445312 75.238281 38.429688 77 37.421875 C 76.851562 37.109375 76.71875 36.761719 76.601562 36.378906 C 76.378906 35.769531 76.207031 35.28125 76.089844 34.910156 C 74.324219 35.917969 72.589844 36.933594 70.886719 37.957031 C 71.167969 38.757812 71.472656 39.59375 71.800781 40.464844 Z M 137.453125 119.472656 L 128.585938 124.625 C 128.910156 124.777344 129.257812 124.960938 129.628906 125.183594 C 130.238281 125.539062 130.71875 125.871094 131.074219 126.183594 L 140.078125 120.984375 Z M 132.074219 116.363281 L 116.25 125.515625 C 116.589844 125.664062 116.976562 125.84375 117.40625 126.050781 C 118.058594 126.359375 118.597656 126.648438 119.027344 126.917969 L 123.296875 124.449219 L 123.273438 124.425781 L 134.675781 117.871094 Z M 146.675781 114.808594 L 141.699219 117.671875 L 144.277344 119.164062 L 149.144531 116.363281 C 148.136719 115.738281 147.3125 115.222656 146.675781 114.808594 Z M 154.167969 118.25 C 153.78125 117.894531 153.449219 117.5625 153.167969 117.25 L 147.078125 120.785156 L 149.699219 122.292969 L 155.167969 119.117188 C 154.855469 118.882812 154.523438 118.589844 154.167969 118.25 Z M 162.101562 120.828125 C 161.359375 120.234375 160.796875 119.730469 160.414062 119.316406 L 152.5 123.894531 L 155.078125 125.40625 L 162.480469 121.117188 C 162.359375 121.027344 162.234375 120.933594 162.101562 120.828125 Z M 158.078125 114.429688 L 155.054688 116.164062 C 155.441406 116.386719 155.832031 116.652344 156.234375 116.960938 C 156.648438 117.304688 157.011719 117.613281 157.324219 117.894531 L 160.101562 116.273438 C 159.910156 116.140625 159.714844 116 159.523438 115.851562 C 158.898438 115.363281 158.417969 114.890625 158.078125 114.429688 Z M 158.433594 109.851562 C 157.914062 109.394531 157.507812 109 157.210938 108.675781 L 148.1875 113.894531 C 148.5 114.03125 148.832031 114.183594 149.1875 114.363281 C 149.871094 114.703125 150.453125 115.019531 150.945312 115.316406 L 155.65625 112.609375 L 155.632812 112.5625 L 159.257812 110.496094 C 159.003906 110.304688 158.730469 110.089844 158.433594 109.851562 Z M 160.878906 109.5625 L 167.035156 106.007812 L 164.4375 104.5 L 158.300781 108.074219 C 158.996094 108.355469 159.855469 108.851562 160.878906 109.5625 Z M 137.054688 94.542969 C 137.855469 94.988281 138.578125 95.566406 139.230469 96.277344 L 147.144531 91.722656 L 144.519531 90.210938 Z M 175.234375 110.742188 L 161.457031 118.738281 C 161.796875 118.886719 162.144531 119.09375 162.5 119.363281 C 162.796875 119.585938 163.226562 119.917969 163.789062 120.363281 L 177.8125 112.230469 Z M 169.8125 107.628906 L 159.898438 113.363281 C 160.699219 113.585938 161.433594 113.925781 162.101562 114.386719 C 162.292969 114.519531 162.472656 114.660156 162.636719 114.808594 L 172.457031 109.121094 Z M 87.355469 31.355469 C 87.210938 31.089844 87.082031 30.757812 86.980469 30.355469 C 86.773438 29.691406 86.636719 29.15625 86.578125 28.757812 C 83.542969 30.519531 80.53125 32.269531 77.554688 34 C 77.882812 34.371094 78.1875 34.84375 78.46875 35.421875 C 78.613281 35.71875 78.734375 36.023438 78.824219 36.332031 C 80.527344 35.328125 82.230469 34.320312 83.933594 33.3125 C 85.058594 32.644531 86.199219 31.992188 87.355469 31.355469 Z M 95.644531 23.648438 C 93.011719 25.113281 90.394531 26.601562 87.800781 28.113281 C 88.410156 28.914062 88.824219 29.675781 89.046875 30.402344 C 91.566406 28.980469 94.097656 27.550781 96.648438 26.113281 C 96.292969 25.269531 95.957031 24.445312 95.644531 23.648438 Z M 97.691406 28.714844 C 95.660156 29.867188 93.644531 31.023438 91.644531 32.179688 C 92.195312 32.875 92.632812 33.617188 92.957031 34.402344 C 94.867188 33.320312 96.789062 32.230469 98.714844 31.132812 C 98.371094 30.273438 98.03125 29.46875 97.691406 28.714844 " fill-opacity="1" fill-rule="evenodd"/><path fill="#f13ea7" d="M 127.539062 132.894531 C 127.96875 133.25 128.339844 133.566406 128.652344 133.847656 L 134.097656 130.695312 L 134.074219 130.671875 L 145.476562 124.09375 L 142.855469 122.605469 L 126.472656 132.09375 C 126.785156 132.316406 127.140625 132.582031 127.539062 132.894531 Z M 122.71875 137.269531 L 126.5625 135.070312 C 126.191406 134.746094 125.824219 134.351562 125.449219 133.890625 C 125.199219 133.597656 124.984375 133.316406 124.808594 133.050781 L 120.117188 135.757812 Z M 73.6875 96.777344 L 73.6875 93.488281 C 70.605469 95.289062 67.621094 97.070312 64.730469 98.832031 C 65.339844 99.558594 65.945312 100.285156 66.554688 101.011719 C 68.9375 99.601562 71.3125 98.191406 73.6875 96.777344 Z M 73.957031 45.488281 C 77.957031 43.117188 81.964844 40.746094 85.976562 38.378906 C 87.742188 37.402344 89.492188 36.414062 91.222656 35.421875 C 91.046875 35.140625 90.867188 34.824219 90.691406 34.46875 C 90.378906 33.859375 90.164062 33.386719 90.046875 33.046875 C 84.121094 36.453125 78.371094 39.792969 72.800781 43.066406 C 73.167969 43.925781 73.554688 44.734375 73.957031 45.488281 Z M 135.429688 100.632812 L 139.386719 103.007812 C 139.476562 102.964844 139.542969 102.929688 139.585938 102.898438 C 139.617188 102.882812 139.644531 102.867188 139.675781 102.851562 C 140.328125 102.5 141.105469 102.328125 142.007812 102.34375 C 142.882812 102.371094 143.640625 102.558594 144.277344 102.898438 C 144.335938 102.929688 144.386719 102.957031 144.433594 102.988281 C 144.445312 102.988281 144.453125 102.996094 144.453125 103.007812 L 148.164062 100.898438 L 148.1875 100.875 C 147.046875 100.179688 145.742188 99.691406 144.277344 99.410156 C 143.492188 99.292969 142.660156 99.21875 141.785156 99.1875 C 141.046875 99.171875 140.34375 99.210938 139.675781 99.296875 C 138.074219 99.476562 136.660156 99.921875 135.429688 100.632812 Z M 118.117188 98.144531 L 113.496094 100.875 L 121.339844 105.476562 L 129.1875 100.875 L 129.1875 102.097656 L 135.761719 98.296875 L 135.742188 98.277344 L 137.320312 97.367188 C 136.949219 97.175781 136.519531 96.921875 136.03125 96.613281 C 135.527344 96.332031 135.113281 96.085938 134.785156 95.878906 L 127.671875 99.988281 L 124.140625 97.890625 L 121.363281 96.234375 L 120.984375 96.457031 Z M 60.84375 52.820312 L 69.621094 55.707031 L 69.664062 55.707031 C 70.453125 53.351562 70.570312 51.042969 70.019531 48.773438 C 69.414062 46.539062 68.289062 44.777344 66.640625 43.488281 L 61.140625 51.976562 L 60.863281 52.421875 L 60.84375 52.484375 L 60.820312 52.421875 L 60.820312 52.484375 L 60.773438 52.484375 L 60.84375 52.507812 Z M 54.429688 61.351562 C 54.21875 61.152344 54.015625 60.9375 53.820312 60.707031 L 60.730469 52.53125 L 60.710938 52.507812 L 51.464844 51.441406 C 51.449219 51.410156 51.441406 51.375 51.441406 51.332031 L 51.308594 51.308594 C 50.832031 54.152344 51.242188 56.699219 52.527344 58.953125 C 53.0625 59.894531 53.691406 60.695312 54.429688 61.351562 " fill-opacity="1" fill-rule="evenodd"/><path fill="#9cc1e9" d="M 127.339844 125.359375 L 114.714844 132.648438 L 117.316406 134.136719 L 128.695312 127.582031 L 128.671875 127.558594 L 129.386719 127.136719 C 129.105469 126.902344 128.785156 126.625 128.429688 126.316406 C 127.984375 125.933594 127.621094 125.613281 127.339844 125.359375 Z M 60.21875 91.679688 C 64.21875 89.308594 68.230469 86.941406 72.242188 84.570312 C 74.007812 83.589844 75.753906 82.605469 77.488281 81.613281 C 77.308594 81.332031 77.132812 81.015625 76.957031 80.65625 C 76.644531 80.050781 76.429688 79.578125 76.308594 79.234375 C 70.382812 82.644531 64.636719 85.984375 59.066406 89.257812 C 59.433594 90.117188 59.820312 90.921875 60.21875 91.679688 Z M 93.046875 48.464844 L 93.046875 45.933594 C 93.046875 45.902344 93.046875 45.871094 93.046875 45.84375 C 93.078125 45.589844 93.300781 45.339844 93.714844 45.089844 L 94.503906 44.632812 C 94.5 44.621094 94.496094 44.609375 94.492188 44.597656 C 88.566406 48.007812 82.816406 51.347656 77.246094 54.621094 C 77.613281 55.480469 78 56.285156 78.402344 57.039062 C 82.402344 54.671875 86.410156 52.300781 90.421875 49.929688 C 91.300781 49.445312 92.175781 48.957031 93.046875 48.464844 " fill-opacity="1" fill-rule="evenodd"/><path fill="#959595" d="M 54.417969 76.28125 C 58.464844 73.882812 62.539062 71.5 66.640625 69.128906 L 66.640625 69.082031 C 70.6875 66.742188 74.792969 64.386719 78.957031 62.015625 C 78.554688 61.1875 78.222656 60.378906 77.957031 59.597656 C 69.746094 64.246094 61.597656 68.988281 53.507812 73.816406 C 53.847656 74.660156 54.152344 75.480469 54.417969 76.28125 " fill-opacity="1" fill-rule="evenodd"/><path fill="#cdccca" d="M 67.554688 71.816406 C 64.753906 73.417969 61.976562 75.039062 59.21875 76.679688 C 59.367188 76.992188 59.53125 77.386719 59.710938 77.859375 C 59.914062 78.316406 60.101562 78.734375 60.265625 79.101562 C 62.902344 77.519531 65.546875 75.96875 68.199219 74.460938 C 68.066406 74.148438 67.9375 73.792969 67.820312 73.394531 C 67.703125 72.699219 67.613281 72.171875 67.554688 71.816406 Z M 76.957031 67.972656 C 76.792969 67.335938 76.683594 66.867188 76.621094 66.570312 C 73.957031 68.082031 71.296875 69.617188 68.644531 71.171875 C 68.820312 71.46875 69.035156 71.875 69.289062 72.394531 C 69.496094 72.824219 69.660156 73.183594 69.777344 73.480469 C 72.28125 72.0625 74.808594 70.640625 77.355469 69.214844 C 77.207031 68.875 77.074219 68.460938 76.957031 67.972656 Z M 77.753906 65.882812 C 78.066406 66.519531 78.40625 67.355469 78.777344 68.394531 C 79.472656 67.964844 80.1875 67.550781 80.910156 67.148438 C 80.601562 66.304688 80.28125 65.476562 79.957031 64.660156 C 79.230469 65.074219 78.496094 65.484375 77.753906 65.882812 Z M 56.195312 81.457031 C 57.144531 80.925781 58.085938 80.371094 59.019531 79.792969 C 58.902344 79.570312 58.796875 79.296875 58.707031 78.96875 C 58.441406 78.171875 58.269531 77.609375 58.195312 77.28125 C 57.265625 77.832031 56.324219 78.394531 55.375 78.96875 C 55.625 79.785156 55.902344 80.613281 56.195312 81.457031 " fill-opacity="1" fill-rule="evenodd"/><path fill="#ef277b" d="M 93.046875 70.605469 L 93.046875 53.242188 C 92.828125 53.25 92.605469 53.296875 92.378906 53.375 C 91.773438 53.566406 91.304688 53.9375 90.980469 54.484375 C 90.667969 55.019531 90.585938 55.574219 90.734375 56.152344 C 90.882812 56.714844 91.222656 57.136719 91.757812 57.417969 C 91.90625 57.460938 92.039062 57.515625 92.15625 57.574219 L 92.359375 66.351562 C 92.046875 66.46875 91.78125 66.640625 91.558594 66.863281 L 86.757812 64.261719 C 86.816406 63.980469 86.800781 63.699219 86.710938 63.417969 C 86.535156 62.839844 86.195312 62.410156 85.691406 62.128906 C 85.140625 61.863281 84.566406 61.816406 83.957031 61.996094 C 83.347656 62.203125 82.890625 62.574219 82.578125 63.105469 C 82.253906 63.667969 82.164062 64.230469 82.3125 64.792969 C 82.472656 65.371094 82.824219 65.792969 83.355469 66.0625 C 83.890625 66.34375 84.460938 66.386719 85.070312 66.195312 C 85.527344 66.03125 85.914062 65.773438 86.222656 65.417969 L 90.847656 67.949219 C 90.742188 68.320312 90.742188 68.707031 90.847656 69.105469 C 91.011719 69.683594 91.359375 70.105469 91.890625 70.371094 C 92.253906 70.566406 92.640625 70.644531 93.046875 70.605469 " fill-opacity="1" fill-rule="evenodd"/><path fill="#97bce7" d="M 144.453125 103.007812 C 145.121094 103.410156 145.460938 103.882812 145.476562 104.429688 C 145.476562 104.996094 145.144531 105.46875 144.476562 105.851562 C 144.402344 105.882812 144.328125 105.910156 144.253906 105.941406 L 148.300781 108.363281 C 150.03125 107.34375 150.890625 106.105469 150.878906 104.652344 C 150.878906 104.519531 150.863281 104.394531 150.832031 104.277344 C 150.683594 102.988281 149.796875 101.863281 148.164062 100.898438 Z M 69.621094 55.707031 L 60.84375 52.820312 L 62.398438 62.953125 C 63.273438 62.699219 64.144531 62.277344 65.019531 61.683594 C 67.167969 60.261719 68.703125 58.269531 69.621094 55.707031 Z M 60.710938 52.507812 L 56.863281 43.066406 C 55.484375 43.910156 54.324219 45.058594 53.375 46.511719 C 52.398438 47.960938 51.75 49.566406 51.441406 51.332031 C 51.441406 51.375 51.449219 51.410156 51.464844 51.441406 L 60.710938 52.507812 " fill-opacity="1" fill-rule="evenodd"/><path fill="#fbc907" d="M 144.253906 105.941406 C 143.632812 106.253906 142.90625 106.394531 142.078125 106.363281 C 141.140625 106.347656 140.335938 106.160156 139.652344 105.785156 L 135.539062 108.140625 L 135.519531 108.140625 C 137.296875 109.207031 139.4375 109.761719 141.941406 109.808594 C 144.433594 109.851562 146.550781 109.371094 148.300781 108.363281 Z M 61.140625 51.976562 L 66.640625 43.488281 L 66.753906 43.375 C 65.878906 42.695312 64.960938 42.230469 63.996094 41.976562 C 63.347656 41.769531 62.671875 41.652344 61.976562 41.621094 C 60.257812 41.578125 58.589844 42.027344 56.972656 42.976562 C 56.960938 42.992188 56.945312 43.007812 56.929688 43.019531 C 56.902344 43.035156 56.871094 43.042969 56.84375 43.042969 L 56.863281 43.066406 L 60.710938 52.507812 L 60.730469 52.53125 L 60.796875 52.421875 L 60.820312 52.484375 L 60.820312 52.421875 L 60.863281 52.398438 L 61.140625 51.976562 " fill-opacity="1" fill-rule="evenodd"/><path fill="#968bcd" d="M 139.386719 103.007812 L 135.429688 100.632812 C 133.695312 101.640625 132.835938 102.847656 132.851562 104.253906 C 132.835938 104.285156 132.835938 104.304688 132.851562 104.320312 C 132.867188 105.785156 133.761719 107.0625 135.539062 108.140625 L 139.652344 105.785156 C 139.652344 105.773438 139.644531 105.757812 139.632812 105.742188 C 138.949219 105.34375 138.609375 104.863281 138.609375 104.296875 C 138.59375 103.792969 138.855469 103.367188 139.386719 103.007812 Z M 60.820312 52.484375 L 60.796875 52.421875 L 60.730469 52.53125 L 53.820312 60.707031 C 54.015625 60.9375 54.21875 61.152344 54.429688 61.351562 L 54.820312 61.683594 L 55.953125 62.375 C 56.425781 62.65625 56.945312 62.875 57.507812 63.039062 C 57.597656 63.054688 57.6875 63.078125 57.773438 63.105469 C 59.300781 63.492188 60.851562 63.449219 62.417969 62.972656 L 62.398438 62.953125 L 60.84375 52.820312 L 60.84375 52.53125 L 60.773438 52.484375 L 60.820312 52.484375 " fill-opacity="1" fill-rule="evenodd"/><path fill="#fac009" d="M 60.84375 52.53125 L 60.84375 52.507812 L 60.773438 52.484375 Z M 60.863281 52.398438 L 60.820312 52.421875 L 60.84375 52.484375 L 60.863281 52.421875 L 60.863281 52.398438 " fill-opacity="1" fill-rule="evenodd"/><g clip-path="url(#303d1b2514)"><g clip-path="url(#5764a7e78b)"><g clip-path="url(#3203984107)"><path fill="url(#aac99fe064)" d="M 61.113281 52.507812 L 60.738281 52.378906 L 60.890625 51.890625 L 61.265625 52.019531 Z M 61.113281 52.507812 " fill-rule="nonzero"/></g></g></g><g clip-path="url(#adef24cb63)"><path fill="#cee1f5" d="M 98.746094 111.140625 L 99.859375 110.496094 L 98.738281 109.851562 L 98.738281 109.984375 C 98.765625 110.046875 98.765625 110.125 98.738281 110.230469 L 98.757812 110.207031 Z M 98.738281 104.441406 L 98.738281 106.363281 L 103.738281 109.230469 C 104.847656 109.867188 105.960938 109.867188 107.070312 109.230469 L 113.496094 105.488281 L 113.496094 103.886719 L 107.003906 107.628906 C 106.101562 108.164062 105.195312 108.15625 104.292969 107.609375 Z M 73.6875 109.707031 L 71.445312 111.007812 C 70.925781 111.289062 70.652344 111.578125 70.621094 111.875 C 70.589844 111.949219 70.582031 112.023438 70.597656 112.097656 C 70.6875 112.378906 70.96875 112.652344 71.445312 112.917969 L 84.289062 120.292969 C 85.402344 120.933594 86.511719 120.933594 87.625 120.292969 L 88.847656 119.585938 L 87.480469 118.792969 C 86.625 119.246094 85.769531 119.214844 84.914062 118.695312 L 74.355469 112.675781 C 73.910156 112.40625 73.6875 112.132812 73.6875 111.851562 Z M 118.117188 92.957031 L 118.117188 94.8125 L 120.984375 96.457031 L 121.363281 96.234375 L 124.140625 97.890625 C 124.757812 97.921875 125.371094 97.761719 125.984375 97.410156 L 132.609375 93.542969 L 132.628906 93.542969 L 133.832031 92.878906 L 133.808594 92.855469 L 138.875 89.921875 C 139.421875 89.597656 139.703125 89.285156 139.71875 88.988281 C 139.734375 88.664062 139.453125 88.332031 138.875 87.988281 L 136.984375 86.902344 L 136.984375 87.101562 C 137.015625 87.175781 137.015625 87.257812 136.984375 87.347656 L 137.007812 87.324219 L 136.984375 88.921875 C 137.089844 89.21875 136.875 89.523438 136.339844 89.835938 L 125.871094 95.855469 C 124.96875 96.390625 124.066406 96.382812 123.164062 95.832031 Z M 111.9375 10.652344 C 111.941406 10.84375 112.164062 11.074219 112.605469 11.335938 L 116.78125 13.714844 L 116.761719 13.738281 L 117.695312 14.292969 L 117.71875 14.292969 L 123.140625 17.425781 C 124.042969 17.929688 124.949219 17.921875 125.851562 17.40625 L 136.320312 11.359375 C 136.71875 11.152344 136.949219 10.929688 137.007812 10.695312 L 137.007812 10.671875 C 137.007812 10.613281 137 10.554688 136.984375 10.496094 C 136.957031 10.273438 136.734375 10.050781 136.320312 9.828125 L 133.273438 8.027344 L 133.296875 8.027344 L 128.808594 5.449219 L 128.808594 5.472656 L 125.808594 3.71875 C 124.871094 3.214844 123.953125 3.214844 123.050781 3.71875 L 112.605469 9.761719 C 112.191406 9.996094 111.96875 10.242188 111.9375 10.496094 C 111.9375 10.523438 111.9375 10.554688 111.9375 10.582031 Z M 136.984375 46.042969 L 136.984375 46.308594 C 136.996094 46.285156 137.003906 46.261719 137.007812 46.242188 L 137.007812 46.21875 C 137.007812 46.160156 137 46.101562 136.984375 46.042969 " fill-opacity="1" fill-rule="evenodd"/></g><g clip-path="url(#fd3f4309d7)"><g clip-path="url(#e16f6210e8)"><path fill="url(#e01e9f4249)" d="M 111.9375 60.839844 L 111.9375 10.652344 L 137.007812 10.652344 L 137.007812 60.839844 Z M 111.9375 60.839844 " fill-rule="nonzero"/></g></g><g clip-path="url(#1e0d8ae2e0)"><g clip-path="url(#eb8d6f8a49)"><path fill="url(#afbb2a47c6)" d="M 118.117188 96.390625 L 118.117188 46.242188 L 137.089844 46.242188 L 137.089844 96.390625 Z M 118.117188 96.390625 " fill-rule="nonzero"/></g></g><path fill="#e2dcf1" d="M 118.117188 70.949219 L 118.140625 70.925781 L 118.140625 70.90625 C 118.140625 70.859375 118.132812 70.824219 118.117188 70.792969 Z M 118.117188 46.066406 L 118.140625 46.042969 L 118.140625 46.019531 C 118.140625 45.976562 118.132812 45.9375 118.117188 45.910156 C 118.117188 45.878906 118.117188 45.855469 118.117188 45.84375 C 118.074219 45.621094 117.84375 45.390625 117.425781 45.152344 L 114.382812 43.375 L 114.40625 43.375 L 111.9375 41.957031 L 109.9375 40.800781 L 109.9375 40.820312 L 106.914062 39.089844 C 106.390625 38.785156 105.863281 38.652344 105.335938 38.699219 C 104.945312 38.730469 104.550781 38.859375 104.160156 39.089844 L 94.503906 44.632812 L 93.714844 45.089844 C 93.300781 45.339844 93.078125 45.589844 93.046875 45.84375 C 93.046875 45.871094 93.046875 45.902344 93.046875 45.933594 L 93.046875 46.019531 C 93.050781 46.199219 93.273438 46.421875 93.714844 46.6875 L 97.890625 49.066406 L 97.867188 49.085938 L 98.824219 49.621094 L 98.847656 49.621094 L 104.25 52.773438 C 105.167969 53.28125 106.078125 53.269531 106.980469 52.753906 L 117.425781 46.710938 C 117.8125 46.488281 118.042969 46.273438 118.117188 46.066406 " fill-opacity="1" fill-rule="evenodd"/><g clip-path="url(#cca70481ce)"><g clip-path="url(#f77dc4a79e)"><path fill="url(#1ff4860eb9)" d="M 93.046875 108.164062 L 93.046875 75.894531 L 118.117188 75.894531 L 118.117188 108.164062 Z M 93.046875 108.164062 " fill-rule="nonzero"/></g></g><path fill="#fae146" d="M 89.257812 85.023438 L 88.902344 84.8125 L 87.558594 84.035156 C 86.625 83.515625 85.703125 83.515625 84.800781 84.035156 L 74.355469 90.058594 C 73.941406 90.292969 73.71875 90.542969 73.6875 90.8125 C 73.6875 90.828125 73.6875 90.847656 73.6875 90.878906 L 73.6875 90.964844 C 73.691406 91.148438 73.914062 91.375 74.355469 91.65625 L 78.511719 94.011719 L 78.511719 94.035156 L 79.445312 94.589844 L 79.488281 94.589844 L 84.890625 97.722656 C 85.792969 98.226562 86.695312 98.21875 87.601562 97.699219 L 98.070312 91.65625 C 98.441406 91.464844 98.664062 91.257812 98.738281 91.035156 C 98.75 91.019531 98.757812 91.003906 98.757812 90.988281 L 98.757812 90.964844 C 98.757812 90.921875 98.75 90.878906 98.738281 90.835938 L 98.738281 90.8125 C 98.707031 90.574219 98.484375 90.339844 98.070312 90.101562 L 95.003906 88.324219 L 95.023438 88.324219 L 93.046875 87.179688 L 90.558594 85.746094 L 90.558594 85.769531 L 89.257812 85.023438 " fill-opacity="1" fill-rule="evenodd"/><g clip-path="url(#ed9f127755)"><g clip-path="url(#8ab61ad21f)"><path fill="url(#d5f1830815)" d="M 73.6875 119.246094 L 73.6875 90.964844 L 98.839844 90.964844 L 98.839844 119.246094 Z M 73.6875 119.246094 " fill-rule="nonzero"/></g></g><path fill="#d2e1f5" d="M 87.480469 118.792969 L 88.847656 119.585938 L 96.648438 124.050781 L 111.472656 115.472656 L 101.3125 109.652344 L 99.859375 110.496094 L 98.746094 111.140625 L 98.738281 111.785156 C 98.839844 112.082031 98.625 112.386719 98.089844 112.695312 L 87.625 118.71875 C 87.574219 118.746094 87.527344 118.773438 87.480469 118.792969 Z M 121.648438 116.628906 L 127.386719 113.316406 L 133.339844 109.875 L 129.1875 107.484375 L 129.1875 109.71875 L 121.363281 114.339844 L 121.339844 114.339844 L 113.496094 109.71875 L 113.496094 107.296875 L 109.183594 109.785156 L 121.382812 116.785156 L 121.648438 116.628906 " fill-opacity="1" fill-rule="evenodd"/><g clip-path="url(#d86c683e8a)"><g clip-path="url(#0d0b0941f1)"><path fill="url(#18e9e3a1f3)" d="M 93.046875 83.28125 L 93.046875 46.019531 L 118.144531 46.019531 L 118.144531 83.28125 Z M 93.046875 83.28125 " fill-rule="nonzero"/></g></g><path fill="#e7137c" d="M 121.339844 105.476562 L 121.363281 114.339844 L 129.1875 109.71875 L 129.1875 100.875 L 121.339844 105.476562 " fill-opacity="1" fill-rule="evenodd"/><path fill="#b2164d" d="M 121.339844 105.476562 L 113.496094 100.875 L 113.496094 109.71875 L 121.339844 114.339844 L 121.363281 114.339844 L 121.339844 105.476562 " fill-opacity="1" fill-rule="evenodd"/></svg>